<svg width="35" height="18" viewBox="0 0 35 18" fill="none" xmlns="http://www.w3.org/2000/svg">
<path d="M34.2096 1.55903L17.847 17.6871C17.771 17.7621 17.6808 17.8216 17.5814 17.8622C17.4821 17.9028 17.3757 17.9236 17.2681 17.9236C17.1606 17.9236 17.0542 17.9028 16.9548 17.8622C16.8555 17.8216 16.7653 17.7621 16.6893 17.6871L0.326672 1.55903C0.250659 1.4841 0.190363 1.39516 0.149225 1.29726C0.108087 1.19937 0.0869141 1.09445 0.0869141 0.988495C0.0869141 0.882538 0.108087 0.777617 0.149225 0.679725C0.190363 0.581833 0.250659 0.492886 0.326672 0.417963C0.480187 0.266649 0.688398 0.181641 0.905501 0.181641C1.013 0.181641 1.11945 0.202512 1.21876 0.24306C1.31808 0.283608 1.40832 0.34304 1.48433 0.417963L17.2681 15.9755L33.0519 0.417963C33.128 0.34304 33.2182 0.283608 33.3175 0.24306C33.4168 0.202512 33.5233 0.181641 33.6308 0.181641C33.7383 0.181641 33.8447 0.202512 33.944 0.24306C34.0434 0.283608 34.1336 0.34304 34.2096 0.417963C34.2856 0.492886 34.3459 0.581833 34.3871 0.679725C34.4282 0.777617 34.4494 0.882538 34.4494 0.988495C34.4494 1.09445 34.4282 1.19937 34.3871 1.29726C34.3459 1.39516 34.2856 1.4841 34.2096 1.55903Z" fill="#D60000"/>
</svg>
