<svg width="114" height="115" viewBox="0 0 114 115" fill="none" xmlns="http://www.w3.org/2000/svg">
<path d="M74.4394 0.75H39.6173C7.81435 0.75 0.249512 8.31484 0.249512 40.0611V74.8832C0.249512 106.68 7.7576 114.251 39.5606 114.251H74.3827C106.18 114.251 113.751 106.743 113.751 74.9399V40.1178C113.751 8.31484 106.242 0.75 74.4394 0.75ZM91.8789 81.733H83.599C80.4663 81.733 79.5243 79.1962 73.906 73.5779C69.0027 68.8506 66.9314 68.2604 65.6885 68.2604C63.9746 68.2604 63.5036 68.7314 63.5036 71.0979V78.5436C63.5036 80.5582 62.851 81.7386 57.5902 81.7386C52.4846 81.3955 47.5336 79.8444 43.1449 77.213C38.7563 74.5815 35.0555 70.9451 32.3476 66.6033C25.9187 58.6014 21.4455 49.21 19.2836 39.1758C19.2836 37.9329 19.7547 36.8093 22.1212 36.8093H30.3954C32.5235 36.8093 33.2896 37.757 34.1239 39.9419C38.1418 51.7687 44.9973 62.0519 47.7781 62.0519C48.845 62.0519 49.3103 61.5809 49.3103 58.9193V46.7406C48.9585 41.1847 46.0074 40.7137 46.0074 38.7047C46.0453 38.1748 46.2882 37.6806 46.6844 37.3267C47.0806 36.9729 47.5991 36.7873 48.1299 36.8093H61.1371C62.9134 36.8093 63.5036 37.6946 63.5036 39.8227V56.2577C63.5036 58.034 64.2697 58.6242 64.8032 58.6242C65.8701 58.6242 66.693 58.034 68.6452 56.0817C72.8383 50.9682 76.2642 45.2712 78.8149 39.1701C79.0756 38.4372 79.569 37.8098 80.2196 37.3835C80.8703 36.9573 81.6426 36.7556 82.4186 36.8093H90.6985C93.1785 36.8093 93.7062 38.0521 93.1785 39.8227C90.1678 46.5671 86.4426 52.9692 82.0667 58.9193C81.1757 60.2813 80.8182 60.9907 82.0667 62.5853C82.8896 63.8282 85.7895 66.2514 87.7418 68.5555C90.5787 71.3853 92.9346 74.6594 94.7164 78.2485C95.4258 80.5526 94.2397 81.733 91.8789 81.733Z" fill="black"/>
</svg>
