<svg width="91" height="91" viewBox="0 0 91 91" fill="none" xmlns="http://www.w3.org/2000/svg">
<path fill-rule="evenodd" clip-rule="evenodd" d="M45.5 0.141113C20.6488 0.141113 0.5 20.2899 0.5 45.1411C0.5 69.9923 20.6488 90.1411 45.5 90.1411C70.3512 90.1411 90.5 69.9923 90.5 45.1411C90.5 20.2899 70.3512 0.141113 45.5 0.141113ZM87.5729 45.1411C87.5729 68.376 68.7366 87.214 45.5 87.214C22.2634 87.214 3.4271 68.376 3.4271 45.1411C3.4271 21.9062 22.2651 3.06822 45.5 3.06822C68.7349 3.06822 87.5729 21.9062 87.5729 45.1411ZM45.5 19.9366C59.3954 19.9366 70.7045 31.2422 70.7045 45.1411L45.5 45.1411L45.5 70.3439L45.4982 70.3421V70.3439C31.6037 70.3429 20.2955 59.0376 20.2955 45.1394H45.5V19.9366ZM72.1654 45.1411L72.1672 45.1411C72.1672 30.4138 60.2274 18.4757 45.5018 18.4757L45.5 18.4739H45.4982C30.762 18.4739 18.8328 30.4032 18.8328 45.1394C18.8328 59.8667 30.7726 71.8048 45.4982 71.8048V70.3439H45.5L45.5 71.8065C60.2362 71.8065 72.1654 59.8773 72.1654 45.1411ZM69.0316 28.49C68.537 27.8523 67.6573 26.8013 67.0461 26.1512V26.1494L69.8672 20.7421L70.1234 20.3959L69.7736 20.6503L64.3345 23.4537C63.7198 22.8955 62.7552 22.0741 62.0221 21.5141L67.8004 12.482C68.6236 13.1126 69.2684 13.6319 69.9396 14.199L66.1257 19.9225L65.7848 20.3129L66.2141 20.0214L71.2963 17.4935L73.0964 19.2812L70.5508 24.3264L70.2576 24.7521L70.6515 24.4165L76.4156 20.6308C76.958 21.2633 77.6805 22.1624 78.1362 22.7524L69.0316 28.49ZM46.3885 14.7042L48.8758 9.17149L49.0348 8.6804L48.9906 9.19269L49.2521 16.5873C50.1247 16.6685 51.0256 16.7887 51.9142 16.9371L51.5097 5.98471C50.2678 5.84869 49.0295 5.75153 47.7929 5.69854L45.3428 11.7382L45.2562 12.1869L45.1697 11.7382L42.7213 5.69854C41.4847 5.74977 40.2464 5.84869 39.0045 5.98471L38.6 16.9371C39.4886 16.7904 40.3895 16.6721 41.2621 16.5873L41.5236 9.19269L41.4794 8.6804L41.6384 9.17149L44.1257 14.7042H46.3885ZM27.0842 18.5322C28.5221 20.191 27.7077 21.9292 26.2698 23.4325V23.4343C25.8446 23.8791 25.4624 24.2769 25.1002 24.654L25.0999 24.6543C23.7333 26.0769 22.6511 27.2035 20.6152 29.4404L12.8461 22.1218C13.5916 21.1555 14.8352 19.6646 15.6884 18.7195C18.5166 15.5875 19.5571 14.6706 20.9067 14.5346C21.6327 14.4622 22.3482 14.6318 22.9187 15.0911C24.0899 16.0344 23.9857 17.3999 23.825 17.8274L23.7914 17.921L23.8992 17.8786C24.9873 17.4352 26.3016 17.6313 27.0842 18.5322ZM20.1135 17.3345C19.3592 18.0182 17.6969 19.7423 16.1318 21.643L17.6387 23.0686C17.6387 23.0686 20.6735 19.9154 21.5002 18.9898C21.8677 18.5799 22.198 18.0835 22.0797 17.5606C21.9613 17.0413 21.4349 16.6809 20.9244 16.8205C20.6099 16.9035 20.3502 17.119 20.1135 17.3345ZM23.0936 20.4153C22.1291 21.4081 19.1737 24.5101 19.1737 24.5101L20.7495 25.994C20.7548 25.9887 24.2613 22.2631 24.6676 21.8303C24.9679 21.507 25.3336 21.0848 25.4307 20.6414C25.5137 20.2687 25.3618 19.8942 25.035 19.6752C24.7011 19.4543 24.3284 19.4897 23.9875 19.654C23.7225 19.7829 23.477 20.0214 23.0936 20.4153Z" fill="black"/>
</svg>
