<svg width="8" height="5" viewBox="0 0 8 5" fill="none" xmlns="http://www.w3.org/2000/svg">
<path d="M3.99987 4.45135C3.91098 4.45135 3.82476 4.43469 3.7412 4.40135C3.65765 4.36802 3.58831 4.32358 3.5332 4.26802L0.466536 1.20135C0.344314 1.07913 0.283203 0.923575 0.283203 0.734686C0.283203 0.545797 0.344314 0.390242 0.466536 0.268019C0.588758 0.145797 0.744314 0.0846863 0.933203 0.0846863C1.12209 0.0846863 1.27765 0.145797 1.39987 0.268019L3.99987 2.86802L6.59987 0.268019C6.72209 0.145797 6.87765 0.0846863 7.06654 0.0846863C7.25542 0.0846863 7.41098 0.145797 7.5332 0.268019C7.65542 0.390242 7.71654 0.545797 7.71654 0.734686C7.71654 0.923575 7.65542 1.07913 7.5332 1.20135L4.46654 4.26802C4.39987 4.33469 4.32765 4.38202 4.24987 4.41002C4.17209 4.43802 4.08876 4.4518 3.99987 4.45135Z" fill="#D60000"/>
</svg>
