<svg width="161" height="62" viewBox="0 0 161 62" fill="none" xmlns="http://www.w3.org/2000/svg">
<path d="M13.9867 0.620727C17.3945 0.529943 20.8024 0.575291 24.2102 0.575291C26.0277 0.620682 27.8907 0.620727 29.7537 0.620727C31.344 0.71151 32.9798 0.666163 34.5701 0.666163C37.5236 0.802338 40.477 0.756946 43.4305 0.893122C45.0663 0.893122 46.702 1.02921 48.3832 1.02921C50.0645 1.0746 51.7456 1.11999 53.4269 1.25617C55.2898 1.25617 57.1982 1.34695 59.0612 1.48313C61.8329 1.52852 64.6501 1.7555 67.4218 1.84628C68.5123 1.98246 69.6482 1.93713 70.7841 2.02792C71.5566 2.02792 72.3291 2.20939 73.1015 2.164C76.055 2.34557 79.0085 2.57259 81.9619 2.79955C85.2335 3.02651 88.4596 3.3896 91.7311 3.66195C92.8216 3.79813 93.8667 3.7981 94.9572 3.97967C95.9114 3.97967 96.8656 4.16128 97.8652 4.25207C109.906 5.52304 121.947 7.20249 133.761 9.8806C140.713 11.5147 147.62 13.3758 154.163 16.2354C155.344 16.7801 156.48 17.3703 157.571 18.0965C158.434 18.732 159.252 19.4583 159.752 20.4116C160.297 21.3648 160.433 22.5449 160.206 23.6343C159.934 25.1776 158.843 26.3578 157.798 27.4926C154.708 30.3523 150.8 32.0773 146.984 33.8021C137.896 37.7512 128.445 40.8378 118.948 43.6067C107.634 46.8749 96.184 49.6438 84.6882 52.1404C69.3302 55.454 53.8358 58.2683 38.3415 60.8102C37.3873 60.9464 36.3876 61.1734 35.4334 61.2641C34.3883 61.4457 33.3887 61.6727 32.3436 61.7181C32.4345 61.4911 32.5254 61.2188 32.7071 61.0372C33.1615 60.4017 33.6159 59.7208 34.0703 59.0853C37.0692 54.7277 40.0681 50.3701 43.0215 46.0125C43.3396 45.5132 43.7031 45.0593 43.9757 44.56C43.9303 44.4238 43.7486 44.2876 43.6577 44.1968C29.5265 30.08 15.4407 16.0086 1.3095 1.89172C1.08231 1.61937 0.718806 1.39234 0.62793 1.02921C3.89947 0.802249 7.17099 0.711555 10.4425 0.666163C10.7152 0.666163 10.8514 0.847641 11.0332 1.02921C11.3967 1.39234 11.7602 1.75554 12.1237 2.11868C25.6642 15.6 39.2048 29.1268 52.7453 42.6535C55.6533 42.5174 58.5613 42.1995 61.4694 42.018C65.1044 41.7002 68.7394 41.3825 72.3745 41.0194C73.3287 40.974 74.2829 40.7924 75.2371 40.747C76.055 40.6108 76.8729 40.5655 77.6908 40.4747C94.6391 38.6136 111.542 36.1625 128.218 32.5311C135.397 30.897 142.531 29.0814 149.528 26.721C150.846 26.2671 152.118 25.8132 153.345 25.1777C154.117 24.7692 154.89 24.3152 155.39 23.5436C155.708 23.1804 155.708 22.6812 155.617 22.2272C155.526 21.6371 155.026 21.2286 154.617 20.9108C153.572 20.1845 152.3 19.6853 151.119 19.2313C149.028 18.3689 146.893 17.6881 144.712 17.0072C140.032 15.6 135.215 14.5106 130.399 13.5574C121.584 11.8325 112.723 10.6523 103.818 9.69908C103 9.60829 102.227 9.56286 101.409 9.42668C99.5464 9.3359 97.6834 9.01822 95.775 8.92744C94.2301 8.74587 92.6853 8.70041 91.1858 8.51885C89.8681 8.51885 88.5959 8.29195 87.2782 8.24656C85.597 8.11039 83.9158 8.01958 82.2346 7.88341C81.1895 7.74723 80.1444 7.83806 79.1447 7.70188C78.3269 7.70188 77.5545 7.52029 76.7366 7.56569C72.9652 7.33873 69.2393 7.15712 65.4679 7.06633C63.605 7.06633 61.6966 6.83942 59.8336 6.88481C57.1073 6.79403 54.381 6.79403 51.6548 6.65785C50.0644 6.65785 48.4287 6.65785 46.8383 6.65785C45.8387 6.65785 44.8845 6.56707 43.8849 6.65785C50.1553 12.9673 56.4258 19.1859 62.6962 25.45C66.7402 29.4899 70.7842 33.5297 74.8281 37.5696C74.919 37.7057 74.9644 37.842 75.0553 37.9782C73.1924 38.2505 71.284 38.3867 69.3756 38.5683C64.9227 39.0222 60.4698 39.3853 56.0623 39.7031C55.1081 39.7031 54.1993 39.8846 53.2451 39.8846C52.8816 39.8392 52.7907 39.476 52.5181 39.2945C39.8409 26.6302 27.1637 13.9659 14.4865 1.25617C14.3956 1.16538 14.2593 1.07467 14.1684 0.983883C14.0321 0.847708 13.9867 0.756902 13.9867 0.620727Z" fill="black"/>
</svg>
