<svg width="340" height="359" viewBox="0 0 340 359" fill="none" xmlns="http://www.w3.org/2000/svg">
<g clip-path="url(#clip0_296_9119)">
<path d="M234.487 152.126C234.896 151.521 235.248 150.845 235.734 150.314C236.453 149.526 237.84 148.995 237.239 147.648C236.655 146.322 235.21 146.237 234.029 146.499C232.187 146.908 230.645 146.767 228.897 145.808C226.858 144.677 223.657 146.614 222.55 149.059C222.124 149.999 221.223 150.731 220.626 151.607C220.163 152.271 219.657 152.988 219.494 153.749C219.333 154.492 219.545 155.339 219.68 156.112C219.93 157.592 219.342 158.375 217.902 158.797C211.425 160.676 204.836 161.727 198.092 161.937C188.705 162.219 179.34 161.651 170.087 160.194C161.322 158.816 152.556 157.185 144.326 153.64C142.575 152.887 140.906 151.898 139.339 150.826C137.028 149.236 136.761 145.936 138.477 143.404C139.341 142.125 140.431 141.375 141.967 141.216C143.445 141.069 144.912 140.846 146.472 140.633C146.864 142.999 148.666 143.523 150.527 143.848C153.389 144.36 156.116 143.658 158.837 142.825C159.873 142.51 161.013 142.366 162.097 142.404C163.088 142.431 163.548 143.06 163.358 144.166C162.953 146.534 163.921 147.872 166.348 147.973C167.86 148.037 169.398 147.671 170.911 147.462C171.643 147.36 172.369 147.145 173.097 146.995C176.16 146.394 176.141 146.392 177.198 149.221C178.015 151.378 179.85 152.403 181.893 152.952C184.155 153.562 186.36 153.097 188.297 151.779C190.587 150.225 190.859 147.694 189.135 145.237C188.072 143.738 188.275 142.775 189.808 142.09C191.046 141.544 191.876 142.042 191.989 143.395C192.314 147.31 195.12 149.008 198.67 147.416C201.452 146.177 202.033 143.105 199.934 140.918C199.646 140.626 199.291 140.252 199.253 139.891C199.015 137.945 197.658 137.551 196.053 137.478C195.26 137.443 194.429 137.591 193.668 137.427C192.842 137.248 191.54 136.963 191.405 136.461C191.216 135.748 191.65 134.546 192.233 133.987C194.553 131.781 197.313 130.304 200.582 130.062C201.801 129.973 203.035 130.007 204.243 130.114C205.971 130.274 207.573 130.197 209.19 129.342C209.914 128.958 211.05 129.123 211.96 129.302C213.633 129.625 215.239 130.326 216.906 130.518C218.566 130.699 220.333 130.658 221.947 130.281C224.331 129.722 224.96 127.359 223.238 125.614C222.329 124.704 221.078 124.106 219.936 123.453C219.034 122.928 218.074 122.519 216.868 121.935C217.487 121.483 217.883 121.196 218.297 120.911C219.934 119.768 219.871 118.12 217.975 117.417C216.791 116.985 215.35 116.864 214.1 117.081C211.954 117.43 209.882 118.144 207.771 118.703C207.144 118.872 206.507 119.05 205.764 118.889C207.602 117.804 209.398 116.668 211.265 115.662C215.207 113.548 219.171 111.484 223.142 109.449C223.588 109.223 224.19 109.295 224.721 109.238C224.525 109.771 224.483 110.451 224.117 110.816C222.366 112.594 222.5 114.014 224.701 115.218C225.534 115.679 226.433 116.054 227.345 116.298C230.587 117.132 232.424 119.226 233.094 122.436C233.726 125.474 235.905 126.338 238.178 124.136C239.74 122.629 241.12 122.528 243.035 123.046C246.018 123.852 247.985 122.153 249.724 119.67C250.107 120.497 250.554 121.153 250.733 121.875C251.526 125.07 252.33 128.257 252.951 131.491C253.305 133.328 253.661 135.043 255.445 136.194C254.09 137.601 252.798 138.939 251.379 140.414C249.119 139.326 246.601 139.112 244.145 140.188C242.966 140.704 241.781 141.462 240.906 142.393C238.85 144.59 238.945 146.297 241.119 148.66C239.085 150.005 237.082 151.326 235.088 152.657C234.891 152.477 234.702 152.307 234.515 152.119L234.487 152.126Z" fill="white"/>
<path d="M219.301 123.884C220.396 124.626 221.609 125.22 222.557 126.116C223.924 127.401 223.492 128.941 221.713 129.554C219.498 130.299 217.293 129.948 215.112 129.375C213.925 129.065 212.783 128.599 211.574 128.408C210.661 128.266 209.547 128.151 208.792 128.56C207.216 129.381 205.63 129.395 203.989 129.215C199.874 128.751 196.174 129.802 192.873 132.244C192.081 132.837 191.311 133.564 190.767 134.379C189.524 136.238 190.341 138.039 192.56 138.344C193.706 138.5 194.886 138.426 196.062 138.473C197.212 138.508 198.11 138.798 198.341 140.19C198.433 140.744 198.93 141.292 199.361 141.74C200.485 142.935 200.561 144.453 199.51 145.731C198.62 146.811 196.504 147.407 195.112 146.907C193.594 146.355 192.828 145.244 192.897 143.592C192.946 142.481 192.63 141.548 191.466 141.203C190.066 140.776 188.969 141.412 188.068 142.416C187.357 143.214 187.172 144.18 187.842 145.046C189.073 146.646 190.15 148.286 188.611 150.198C187.049 152.146 184.786 152.54 182.521 152.136C180.156 151.712 178.317 150.453 177.785 147.81C177.392 145.903 176.804 145.514 174.862 145.8C173.176 146.047 171.536 146.496 169.849 146.761C168.657 146.947 167.409 147.146 166.219 147.041C164.492 146.881 163.989 146.032 164.278 144.336C164.554 142.752 164.03 141.751 162.443 141.596C161.163 141.463 159.845 141.785 158.552 141.951C155.939 142.29 153.341 142.836 150.717 142.911C149.72 142.939 148.695 141.885 147.686 141.312C148.61 140.986 149.521 140.518 150.484 140.364C160.712 138.753 170.293 135.153 179.693 130.952C183.469 129.262 187.446 127.987 191.213 126.287C195.03 124.563 198.71 122.526 202.475 120.676C203.304 120.274 204.259 120.111 205.163 119.886C206.29 119.599 207.43 119.371 208.565 119.095C210.582 118.629 212.574 118.048 214.615 117.716C215.512 117.565 216.545 117.728 217.402 118.052C218.828 118.593 218.827 119.409 217.643 120.336C217.062 120.792 216.638 121.442 216.129 122.008C216.751 122.522 217.348 123.091 218.003 123.562C218.334 123.802 218.786 123.877 219.18 124.05C219.213 124.006 219.246 123.963 219.27 123.909L219.301 123.884Z" fill="#331E10"/>
<path d="M234.406 104.176C243.067 101.221 251.435 98.3849 260.458 98.8052C263.042 98.9326 265.647 99.3998 268.145 100.09C269.247 100.401 270.277 101.502 271.019 102.479C272.429 104.341 273.686 106.328 274.875 108.336C276.599 111.234 276.397 113.098 274.298 115.703C270.995 119.795 267.804 123.983 264.362 127.968C262.326 130.335 259.926 132.402 257.641 134.546C256.518 135.611 255.594 135.478 254.845 134.116C254.404 133.301 254.158 132.329 254.048 131.398C253.531 127.078 252.384 122.946 250.424 119.067C250.215 118.643 250.038 118.174 249.992 117.719C249.481 113.241 246.728 110.583 242.666 109.43C239.951 108.661 237.539 107.783 235.927 105.337C235.66 104.925 235.102 104.698 234.404 104.194L234.406 104.176Z" fill="white"/>
<path d="M164.968 161.088C161.333 163.14 157.796 165.417 154.013 167.181C147.963 170.004 141.43 170.977 134.79 171.441C127.858 171.922 122.269 169.12 117.191 164.834C114.226 162.332 111.325 159.743 108.381 157.206C102.668 152.263 96.3314 148.811 88.4934 149.077C88.2957 149.084 88.0769 149.024 87.2913 148.914C88.678 147.839 89.6623 146.938 90.7718 146.275C92.392 145.299 94.0851 144.434 95.8038 143.684C96.3048 143.464 97.1218 143.633 97.6469 143.903C100.6 145.447 103.549 147.028 106.432 148.697C111.676 151.744 116.721 155.174 122.132 157.882C132.773 163.224 143.941 163.942 155.361 160.598C156.223 160.341 157.025 159.927 157.867 159.583C158.111 159.486 158.367 159.278 158.588 159.32C160.669 159.686 162.736 160.097 164.805 160.49C164.85 160.692 164.913 160.895 164.958 161.097L164.968 161.088Z" fill="white"/>
<path d="M137.347 142.64C135.411 147.015 135.611 150.608 140.438 152.974C139.827 153.164 139.532 153.302 139.227 153.346C132.509 154.299 126.704 151.859 121.482 148.064C117.802 145.394 114.487 142.191 111.068 139.173C108.92 137.281 106.58 135.801 103.805 134.978C100.194 133.901 96.6457 133.401 92.9362 135.989C93.2234 133.853 93.4638 132.077 93.6838 130.319C93.9588 128.209 94.2793 126.114 94.4699 124.005C94.8165 120.122 93.4822 116.805 90.8721 113.946C90.5939 113.646 90.3278 113.318 90.2077 112.668C90.9491 112.932 91.7373 113.108 92.432 113.461C96.7531 115.644 100.238 118.744 102.892 122.807C106.284 127.988 110.068 132.815 115.17 136.504C120.631 140.446 126.603 142.529 133.353 142.366C134.603 142.336 135.848 142.531 137.336 142.648L137.347 142.64Z" fill="white"/>
<path d="M156.728 158.996C156.159 159.237 155.753 159.448 155.327 159.573C144.662 162.78 134.088 162.395 124.066 157.586C117.582 154.476 111.521 150.443 105.336 146.698C102.328 144.877 99.4297 142.898 95.7389 142.684C95.3659 142.664 94.8932 142.249 94.6579 141.896C94.262 141.283 93.9398 140.594 93.6936 139.893C92.7271 137.008 93.4748 135.585 96.5363 135.087C100.925 134.361 104.908 135.73 108.373 138.303C110.871 140.165 113.114 142.404 115.406 144.536C118.577 147.5 122.08 149.973 125.959 151.904C130.666 154.249 135.598 155.154 140.823 154.139C141.415 154.032 142.101 154.019 142.673 154.2C147.164 155.651 151.629 157.173 156.105 158.669C156.25 158.721 156.382 158.801 156.73 158.978L156.728 158.996Z" fill="white"/>
<path d="M90.5512 111.794C96.6517 111.105 101.752 112.468 106.444 115.59C110.435 118.245 113.315 121.938 115.982 125.787C120.428 132.183 126.352 136.548 133.662 139.023C136.724 140.053 139.801 139.406 142.716 138.33C143.838 137.912 144.954 137.006 145.674 136.031C147.701 133.297 150.443 132.447 153.626 132.495C158.249 132.581 162.864 132.741 167.501 132.782C169.347 132.795 171.181 132.563 173.37 132.434C172.933 132.67 172.799 132.778 172.643 132.837C163.511 136.09 154.41 139.403 144.556 139.759C142.373 139.832 140.041 139.891 138.268 141.62C138.112 141.763 137.781 141.794 137.54 141.769C134.943 141.584 132.354 141.409 129.762 141.187C121.933 140.544 115.86 136.454 110.588 131.05C108.291 128.702 106.259 126.054 104.443 123.315C101.044 118.208 96.6508 114.368 90.58 111.788L90.5512 111.794Z" fill="white"/>
<path d="M225.34 108.327C228.089 107.318 230.636 106.27 233.267 105.492C233.914 105.306 235.135 105.742 235.555 106.302C237.163 108.428 239.221 109.56 241.802 110.081C244.96 110.728 247.289 112.592 248.623 115.552C249.4 117.283 249.288 118.987 248.026 120.488C246.723 122.022 245.077 122.882 243.085 122.207C240.956 121.489 239.314 121.769 237.614 123.421C235.767 125.226 234.205 124.558 233.639 122.062C232.875 118.757 231.085 116.405 227.663 115.497C226.695 115.247 225.767 114.794 224.9 114.291C223.555 113.514 223.456 112.66 224.601 111.663C225.63 110.776 226.287 109.869 225.367 108.339L225.34 108.327Z" fill="#331E10"/>
<path d="M233.404 186.425C233.486 186.171 233.5 186.041 233.561 185.991C237.748 183.05 239.419 178.6 240.736 173.946C241.016 172.971 241.194 171.977 241.436 170.999C242.074 168.459 243.415 166.469 245.839 165.249C246.919 164.695 247.931 163.975 248.84 163.169C253.498 159.03 253.822 153.194 249.668 148.496C248.544 147.217 247.224 146.115 246.16 144.804C245.353 143.811 244.793 142.618 244.127 141.527C244.221 141.349 244.314 141.171 244.389 140.992C245.723 140.877 247.075 140.595 248.406 140.686C250.556 140.844 250.608 141.243 250.961 143.352C251.203 144.821 251.846 146.303 252.611 147.602C255.754 152.916 256.487 158.505 254.434 164.284C253.829 165.965 252.302 167.391 251.008 168.748C250.221 169.557 249.105 170.107 248.049 170.607C244.67 172.178 242.858 174.822 242.733 178.475C242.627 181.484 240.585 183.447 238.958 185.482C237.73 187.023 235.423 186.756 233.402 186.443L233.404 186.425Z" fill="white"/>
<path d="M179.826 107.159C181.668 105.409 183.459 105.042 185.606 106.034C188.936 107.56 192.138 107.696 195.541 105.986C201.089 103.214 204.712 103.993 209.266 108.263C210.874 109.761 212.734 110.985 214.593 112.416C212.99 113.309 211.282 114.323 209.502 115.207C209.147 115.377 208.47 115.128 208.064 114.88C205.747 113.449 203.259 112.937 200.582 113.344C197.362 113.835 194.486 112.993 191.834 111.171C188.343 108.755 184.538 107.292 180.229 107.342C180.098 107.347 179.961 107.22 179.818 107.149L179.826 107.159Z" fill="white"/>
<path d="M238.57 177.387C235.73 171.045 237.025 164.981 241.743 160.267C242.904 159.103 244.097 157.914 244.979 156.552C247.152 153.224 247.388 149.057 242.049 147.378C240.541 146.903 240.025 145.912 240.776 144.555C241.41 143.411 242.4 142.454 243.016 141.665C244.792 143.893 246.359 145.865 247.929 147.819C248.428 148.433 249.037 148.975 249.505 149.614C252.366 153.493 253.446 158.902 247.753 162.981C247.023 163.506 246.265 164.036 245.456 164.421C242.56 165.771 241.057 168.147 240.261 171.121C239.705 173.22 239.115 175.296 238.541 177.393L238.57 177.387Z" fill="white"/>
<path d="M255.48 152.578C258.191 156.544 260.721 160.538 260.575 165.652C260.378 172.523 255.354 176.756 250.465 178.687C248.255 179.564 245.921 180.1 243.685 180.778C243.762 176.96 244.555 173.292 248.725 171.418C256.139 168.099 257.096 160.594 255.904 154.272C255.795 153.698 255.618 153.146 255.47 152.586L255.48 152.578Z" fill="white"/>
<path d="M187.478 105.89C188.812 104.959 190.312 104.149 191.507 103.026C196.771 98.1056 203.379 97.5816 209.242 101.893C210.951 103.14 212.366 104.777 214.009 106.11C215.679 107.456 217.459 108.644 219.151 109.869C217.646 111.448 216.121 111.871 213.997 110.657C212.404 109.741 210.912 108.574 209.581 107.311C205.666 103.557 201.298 102.551 196.286 104.769C195.313 105.202 194.363 105.685 193.375 106.08C191.31 106.906 189.408 106.803 187.449 105.896L187.478 105.89Z" fill="white"/>
<path d="M220.58 158.371C220.478 157.011 220.482 156.158 220.334 155.327C220.073 153.771 220.313 152.54 221.899 151.71C222.474 151.414 222.876 150.612 223.141 149.955C224.534 146.564 226.822 145.742 230.053 147.315C230.866 147.709 231.998 147.639 232.943 147.483C234.661 147.193 235.241 147.197 236.542 148.129C236.092 148.579 235.723 149.066 235.245 149.419C234.309 150.129 233.674 150.916 233.618 152.185C233.592 152.698 233.085 153.433 232.625 153.62C228.706 155.239 224.744 156.741 220.58 158.371Z" fill="#331E10"/>
<path d="M205.15 114.952C201.791 116.067 198.407 117.047 194.778 116.511C192.497 116.171 190.826 114.742 189.258 113.229C186.767 110.851 184.046 108.881 180.578 108.146C180.622 107.992 180.658 107.827 180.702 107.672C182.051 107.952 183.489 108.008 184.737 108.54C186.919 109.47 189.108 110.513 191.073 111.823C194.08 113.832 197.223 114.814 200.843 114.355C202.248 114.183 203.706 114.409 205.147 114.446C205.148 114.615 205.149 114.783 205.15 114.952Z" fill="white"/>
<path d="M199.181 163.006C200.182 162.941 201.596 162.863 203.227 162.779C202.805 164.854 201.898 166.457 200.562 167.865C198.875 169.659 196.348 170.522 195.185 172.962C194.909 173.542 193.603 173.754 192.735 173.898C191.19 174.15 189.616 174.222 188.064 174.361C187.999 174.176 187.934 173.991 187.869 173.806C188.745 173.315 189.66 172.895 190.478 172.333C192.608 170.875 194.891 169.565 196.724 167.805C197.849 166.721 198.253 164.897 199.171 163.014L199.181 163.006Z" fill="white"/>
<path d="M210.317 161.677C209.663 164.009 208.477 165.583 206.789 166.768C204.807 168.156 202.966 169.634 202.038 171.985C201.936 172.237 201.497 172.492 201.215 172.5C199.806 172.522 198.405 172.471 196.638 172.428C197.399 171.776 197.911 171.276 198.497 170.868C201.118 169.011 203.217 166.763 204.075 163.551C204.171 163.167 204.579 162.666 204.925 162.589C206.632 162.223 208.363 161.99 210.346 161.67L210.317 161.677Z" fill="white"/>
<path d="M202.959 172.137C204.022 170.934 204.934 169.548 206.18 168.57C208.355 166.855 210.071 164.952 211.231 162.362C211.646 161.43 213.361 161.074 214.667 160.693C212.731 164.168 211.511 167.979 208.394 170.544C206.95 171.716 205.355 172.639 203.408 172.605C203.264 172.45 203.111 172.303 202.959 172.137Z" fill="white"/>
<path d="M270.523 100.215C274.409 100.084 277.383 104.499 277.077 110.065C274.959 106.892 272.72 103.528 270.523 100.215Z" fill="white"/>
<path d="M242.3 148.838C238.483 152.381 233.774 154.386 229.018 156.209C225.65 157.5 222.161 158.498 218.683 159.487C217.244 159.891 216.222 160.62 215.498 161.904C214.212 164.171 213.006 166.493 211.544 168.648C209.074 172.302 205.723 174.327 201.098 173.631C198.679 173.268 196.397 173.847 194.064 174.552C192.08 175.143 189.89 175.103 187.788 175.213C187.335 175.241 186.849 174.685 186.381 174.402C186.675 173.926 186.855 173.27 187.276 173.013C189.367 171.739 191.68 170.779 193.595 169.309C195.052 168.194 196.214 166.57 197.177 164.973C198.001 163.624 197.523 163.078 195.898 163.106C186.72 163.27 177.608 162.531 168.547 161.206C167.642 161.075 166.536 161.345 165.703 161.783C164.065 162.654 162.553 163.763 160.995 164.774C152.187 170.414 142.451 172.526 132.12 172.505C125.784 172.485 120.872 169.303 116.259 165.506C113.547 163.274 110.983 160.87 108.354 158.553C104.154 154.845 99.6546 151.669 94.0293 150.579C92.1088 150.202 90.1191 150.22 88.1646 149.989C87.6368 149.925 86.8666 149.667 86.7176 149.295C86.577 148.934 86.9252 148.107 87.3105 147.829C89.4478 146.297 91.658 144.876 94.0563 143.268C94.0819 143.383 94.0647 143.007 93.8978 142.717C91.8572 139.43 91.8806 135.86 92.3998 132.21C92.8031 129.317 93.2991 126.434 93.591 123.53C93.9522 119.957 92.4643 117.037 90.1298 114.413C89.3655 113.555 88.9308 112.413 88.3508 111.406C89.4468 111.145 90.5397 110.733 91.6472 110.632C99.7163 109.857 106.356 112.824 111.763 118.645C113.82 120.865 115.669 123.288 117.43 125.749C121.565 131.532 127.061 135.497 133.658 137.887C137.987 139.452 142.548 137.872 145.524 134.402C147.753 131.811 150.797 131.208 154.069 131.303C158.585 131.425 163.111 131.726 167.614 131.518C170.647 131.382 173.737 130.793 176.676 129.936C181.57 128.493 186.482 126.968 191.156 124.94C196.123 122.792 200.816 120.035 205.614 117.532C206.297 117.181 206.947 116.789 207.624 116.409C207.576 116.245 207.536 116.09 207.477 115.934C206.736 116.026 205.98 116.079 205.242 116.237C202.951 116.721 200.7 117.36 198.393 117.721C194.922 118.279 191.819 117.282 189.319 114.81C186.385 111.909 183.118 109.685 178.964 108.879C177.336 108.57 177.254 107.736 178.527 106.583C180.41 104.885 182.607 104.034 185.115 104.36C187.391 104.652 189.087 103.853 190.684 102.284C196.435 96.6456 204.077 96.285 210.508 101.359C212.215 102.708 213.665 104.368 215.339 105.761C216.427 106.661 217.65 107.435 218.904 108.1C220.397 108.892 221.901 108.757 223.501 108.07C231.111 104.762 238.653 101.203 246.822 99.4627C250.705 98.6372 254.684 98.1591 258.642 97.7821C260.394 97.6169 262.22 98.0877 264.01 98.2827C265.956 98.5033 267.913 98.8001 269.856 98.9548C274.144 99.2964 277.511 102.627 278.15 106.866C278.714 110.553 277.799 113.59 275.348 116.43C272.674 119.519 270.317 122.894 267.764 126.089C263.896 130.929 259.322 135.068 254.512 138.957C251.563 141.351 251.247 143.306 253.271 146.573C255.343 149.92 257.495 153.218 259.497 156.605C260.949 159.062 261.719 161.767 261.793 164.663C261.989 172.268 257.248 177.206 250.766 179.852C249.542 180.354 248.226 180.658 246.966 181.052C244.874 181.698 243.092 182.788 241.772 184.573C239.308 187.9 235.916 188.054 232.281 187.302C231.941 187.238 231.547 186.879 231.421 186.556C231.346 186.38 231.719 185.94 231.986 185.724C232.641 185.192 233.398 184.764 234.053 184.232C236.771 182.076 237.77 179.498 236.634 175.986C234.527 169.542 236.592 164.092 241.143 159.361C242.215 158.253 243.217 157.082 244.158 155.876C244.569 155.356 244.837 154.662 245.026 154.016C245.843 151.297 245.091 149.869 242.356 148.844L242.3 148.838ZM234.486 152.125C234.683 152.305 234.872 152.475 235.059 152.663C237.062 151.342 239.056 150.012 241.09 148.666C238.916 146.303 238.831 144.587 240.877 142.399C241.752 141.468 242.946 140.72 244.116 140.194C246.572 139.118 249.091 139.332 251.35 140.42C252.769 138.945 254.061 137.607 255.416 136.2C253.632 135.049 253.276 133.334 252.923 131.497C252.302 128.263 251.498 125.076 250.704 121.881C250.526 121.159 250.078 120.503 249.695 119.676C247.946 122.167 245.979 123.866 243.006 123.052C241.091 122.534 239.701 122.643 238.149 124.142C235.887 126.336 233.715 125.482 233.065 122.442C232.395 119.232 230.559 117.138 227.316 116.305C226.394 116.068 225.497 115.675 224.672 115.224C222.471 114.02 222.337 112.6 224.088 110.822C224.454 110.457 224.496 109.777 224.692 109.244C224.169 109.311 223.559 109.229 223.114 109.455C219.143 111.49 215.178 113.555 211.236 115.668C209.369 116.674 207.563 117.818 205.735 118.895C206.488 119.048 207.115 118.878 207.742 118.709C209.854 118.15 211.925 117.436 214.071 117.087C215.32 116.888 216.762 116.991 217.946 117.423C219.842 118.126 219.905 119.774 218.268 120.917C217.854 121.202 217.467 121.499 216.84 121.941C218.053 122.535 219.014 122.944 219.908 123.459C221.049 124.112 222.3 124.711 223.209 125.621C224.95 127.367 224.32 129.73 221.918 130.287C220.304 130.664 218.537 130.705 216.877 130.524C215.208 130.351 213.594 129.639 211.931 129.308C211.03 129.139 209.895 128.956 209.161 129.348C207.544 130.203 205.942 130.28 204.214 130.12C202.998 130.003 201.772 129.979 200.554 130.068C197.284 130.31 194.524 131.787 192.205 133.994C191.622 134.552 191.179 135.744 191.376 136.467C191.512 136.969 192.811 137.273 193.639 137.433C194.4 137.597 195.231 137.449 196.024 137.484C197.619 137.565 198.986 137.951 199.225 139.898C199.271 140.268 199.627 140.624 199.906 140.925C202.023 143.113 201.433 146.174 198.641 147.422C195.101 149.006 192.277 147.306 191.96 143.401C191.847 142.048 191.018 141.55 189.779 142.096C188.256 142.773 188.053 143.736 189.106 145.243C190.84 147.692 190.549 150.221 188.268 151.785C186.331 153.103 184.126 153.568 181.864 152.958C179.821 152.409 177.986 151.384 177.169 149.227C176.102 146.407 176.123 146.39 173.068 147.001C172.34 147.151 171.615 147.366 170.882 147.468C169.359 147.685 167.821 148.051 166.319 147.98C163.892 147.878 162.924 146.54 163.329 144.172C163.519 143.067 163.051 142.427 162.068 142.41C160.982 142.391 159.844 142.517 158.808 142.831C156.087 143.665 153.361 144.366 150.498 143.854C148.637 143.529 146.835 143.005 146.443 140.639C144.893 140.844 143.416 141.075 141.938 141.222C140.394 141.371 139.312 142.131 138.448 143.41C136.724 145.932 136.999 149.242 139.31 150.832C140.885 151.914 142.555 152.903 144.297 153.646C152.527 157.191 161.294 158.822 170.058 160.2C179.312 161.657 188.668 162.215 198.063 161.943C204.806 161.751 211.404 160.692 217.873 158.803C219.314 158.381 219.901 157.598 219.651 156.119C219.526 155.337 219.314 154.49 219.465 153.755C219.629 152.994 220.144 152.269 220.597 151.613C221.204 150.729 222.095 150.005 222.521 149.065C223.628 146.62 226.829 144.683 228.868 145.814C230.598 146.771 232.158 146.914 234.001 146.505C235.181 146.243 236.617 146.317 237.21 147.654C237.811 149.001 236.435 149.524 235.705 150.32C235.209 150.859 234.867 151.527 234.458 152.132L234.486 152.125ZM219.301 123.884C219.301 123.884 219.236 123.971 219.211 124.024C218.815 123.871 218.373 123.787 218.034 123.537C217.379 123.066 216.78 122.516 216.16 121.983C216.659 121.425 217.084 120.756 217.674 120.311C218.858 119.384 218.858 118.568 217.433 118.027C216.576 117.703 215.543 117.54 214.646 117.691C212.605 118.023 210.613 118.604 208.596 119.07C207.462 119.327 206.321 119.574 205.194 119.861C204.29 120.086 203.327 120.239 202.506 120.651C198.733 122.491 195.061 124.538 191.244 126.262C187.466 127.97 183.5 129.237 179.724 130.927C170.324 135.127 160.743 138.728 150.515 140.339C149.563 140.484 148.66 140.963 147.717 141.287C148.736 141.852 149.762 142.905 150.748 142.886C153.362 142.819 155.97 142.265 158.583 141.926C159.876 141.76 161.204 141.429 162.474 141.57C164.069 141.736 164.585 142.727 164.309 144.311C164.02 146.006 164.523 146.856 166.25 147.016C167.448 147.131 168.678 146.93 169.88 146.736C171.557 146.479 173.207 146.022 174.893 145.775C176.835 145.489 177.423 145.878 177.816 147.784C178.358 150.419 180.197 151.679 182.552 152.111C184.817 152.514 187.08 152.121 188.642 150.173C190.162 148.259 189.104 146.621 187.873 145.021C187.203 144.154 187.377 143.197 188.099 142.391C189 141.387 190.106 140.761 191.497 141.177C192.651 141.532 192.967 142.464 192.927 143.567C192.859 145.219 193.636 146.322 195.143 146.882C196.525 147.391 198.651 146.786 199.541 145.706C200.601 144.438 200.515 142.91 199.392 141.715C198.971 141.259 198.473 140.729 198.372 140.165C198.141 138.772 197.251 138.493 196.093 138.448C194.925 138.411 193.745 138.485 192.59 138.319C190.372 138.013 189.545 136.221 190.798 134.354C191.342 133.538 192.112 132.812 192.904 132.219C196.205 129.777 199.897 128.716 204.02 129.19C205.669 129.38 207.245 129.375 208.823 128.535C209.576 128.144 210.691 128.241 211.605 128.383C212.805 128.564 213.956 129.039 215.143 129.35C217.324 129.923 219.529 130.274 221.744 129.529C223.532 128.926 223.955 127.376 222.588 126.091C221.64 125.195 220.418 124.59 219.332 123.859L219.301 123.884ZM234.407 104.176C235.113 104.69 235.662 104.906 235.929 105.318C237.541 107.764 239.954 108.642 242.668 109.411C246.73 110.564 249.483 113.222 249.994 117.701C250.049 118.166 250.215 118.642 250.426 119.049C252.384 122.946 253.533 127.06 254.05 131.38C254.16 132.31 254.406 133.282 254.847 134.097C255.586 135.468 256.512 135.582 257.643 134.528C259.929 132.383 262.309 130.314 264.364 127.949C267.806 123.965 270.997 119.776 274.3 115.684C276.399 113.079 276.601 111.216 274.877 108.318C273.688 106.31 272.431 104.323 271.021 102.461C270.279 101.483 269.249 100.383 268.147 100.071C265.649 99.381 263.044 98.9139 260.46 98.7865C251.439 98.3476 243.069 101.202 234.409 104.157L234.407 104.176ZM164.969 161.088C164.924 160.887 164.86 160.683 164.816 160.482C162.747 160.089 160.68 159.678 158.599 159.312C158.378 159.27 158.122 159.478 157.878 159.574C157.046 159.91 156.233 160.332 155.372 160.59C143.952 163.934 132.775 163.206 122.142 157.874C116.732 155.166 111.687 151.736 106.443 148.688C103.559 147.02 100.61 145.439 97.6575 143.895C97.1323 143.625 96.3153 143.456 95.8143 143.676C94.0854 144.434 92.3923 145.299 90.7823 146.267C89.6625 146.938 88.6866 147.849 87.3018 148.906C88.0875 149.016 88.3063 149.076 88.5039 149.068C96.3522 148.795 102.689 152.246 108.392 157.198C111.325 159.743 114.236 162.323 117.202 164.825C122.272 169.102 127.868 171.914 134.801 171.433C141.44 170.968 147.963 170.004 154.023 167.173C157.797 165.417 161.325 163.129 164.979 161.08L164.969 161.088ZM137.347 142.639C135.867 142.533 134.613 142.328 133.363 142.357C126.614 142.52 120.641 140.438 115.181 136.496C110.078 132.807 106.294 127.979 102.903 122.798C100.249 118.735 96.755 115.625 92.4423 113.453C91.7476 113.099 90.9594 112.924 90.218 112.659C90.3381 113.309 90.6041 113.637 90.8823 113.938C93.4944 116.778 94.837 120.105 94.4802 123.997C94.2896 126.106 93.9588 128.209 93.694 130.31C93.4638 132.077 93.2254 133.834 92.9464 135.98C96.656 133.393 100.205 133.892 103.815 134.97C106.58 135.8 108.93 137.273 111.078 139.164C114.505 142.192 117.812 145.386 121.492 148.055C126.715 151.851 132.519 154.29 139.237 153.337C139.542 153.294 139.848 153.147 140.448 152.966C135.613 150.589 135.422 147.006 137.357 142.631L137.347 142.639ZM156.728 158.996C156.381 158.819 156.248 158.74 156.104 158.687C151.627 157.191 147.162 155.669 142.672 154.218C142.1 154.037 141.424 154.042 140.821 154.158C135.597 155.172 130.675 154.259 125.957 151.922C122.079 149.991 118.575 147.518 115.404 144.554C113.112 142.423 110.88 140.175 108.372 138.321C104.898 135.739 100.923 134.379 96.5346 135.105C93.4731 135.604 92.7235 137.045 93.692 139.911C93.9195 140.61 94.2418 141.3 94.6562 141.915C94.8915 142.267 95.3456 142.68 95.7372 142.702C99.4197 142.906 102.318 144.885 105.335 146.717C111.511 150.452 117.572 154.484 124.064 157.605C134.086 162.414 144.66 162.798 155.326 159.591C155.751 159.466 156.157 159.255 156.726 159.014L156.728 158.996ZM90.5515 111.794C96.6223 114.374 101.007 118.204 104.414 123.321C106.241 126.051 108.273 128.7 110.56 131.056C115.831 136.46 121.905 140.55 129.733 141.193C132.318 141.405 134.915 141.59 137.511 141.775C137.763 141.792 138.084 141.769 138.239 141.626C140.013 139.897 142.352 139.849 144.527 139.765C154.381 139.409 163.491 136.106 172.615 132.843C172.771 132.784 172.923 132.678 173.341 132.44C171.161 132.579 169.308 132.809 167.473 132.788C162.854 132.749 158.231 132.579 153.597 132.502C150.406 132.442 147.673 133.303 145.645 136.037C144.925 137.012 143.809 137.918 142.688 138.336C139.772 139.412 136.704 140.069 133.633 139.029C126.315 136.544 120.392 132.179 115.953 125.793C113.286 121.944 110.407 118.251 106.416 115.596C101.723 112.475 96.6233 111.111 90.5227 111.8L90.5515 111.794ZM225.34 108.327C226.26 109.857 225.603 110.764 224.574 111.651C223.421 112.638 223.528 113.502 224.873 114.279C225.74 114.781 226.668 115.234 227.636 115.484C231.076 116.395 232.859 118.736 233.612 122.049C234.187 124.556 235.759 125.216 237.587 123.408C239.279 121.746 240.92 121.466 243.058 122.194C245.069 122.872 246.707 122.001 247.999 120.475C249.27 118.985 249.381 117.281 248.596 115.54C247.262 112.579 244.933 110.715 241.775 110.069C239.194 109.548 237.136 108.416 235.528 106.289C235.108 105.73 233.887 105.294 233.24 105.48C230.609 106.257 228.052 107.314 225.314 108.314L225.34 108.327ZM233.406 186.406C235.427 186.719 237.734 186.986 238.963 185.445C240.579 183.418 242.631 181.446 242.737 178.438C242.864 174.766 244.685 172.133 248.054 170.57C249.099 170.078 250.234 169.53 251.012 168.711C252.315 167.364 253.841 165.938 254.439 164.247C256.5 158.478 255.758 152.879 252.615 147.564C251.85 146.266 251.207 144.784 250.965 143.314C250.612 141.206 250.56 140.806 248.41 140.649C247.089 140.55 245.738 140.831 244.393 140.954C244.3 141.132 244.207 141.31 244.132 141.49C244.805 142.591 245.366 143.784 246.164 144.767C247.228 146.077 248.557 147.19 249.672 148.459C253.826 153.156 253.502 158.992 248.844 163.132C247.935 163.938 246.921 164.676 245.843 165.211C243.428 166.442 242.079 168.422 241.44 170.962C241.198 171.94 241.01 172.943 240.741 173.909C239.423 178.563 237.752 183.012 233.565 185.954C233.504 186.003 233.501 186.125 233.408 186.387L233.406 186.406ZM179.829 107.14C179.971 107.211 180.108 107.338 180.24 107.333C184.549 107.283 188.354 108.747 191.844 111.162C194.486 112.993 197.372 113.827 200.592 113.335C203.269 112.929 205.757 113.44 208.075 114.871C208.48 115.119 209.176 115.37 209.513 115.198C211.292 114.314 213.011 113.292 214.603 112.407C212.745 110.977 210.874 109.761 209.277 108.254C204.722 103.984 201.099 103.205 195.552 105.977C192.14 107.677 188.938 107.542 185.617 106.025C183.459 105.042 181.678 105.401 179.837 107.151L179.829 107.14ZM238.562 177.377C239.144 175.29 239.726 173.203 240.281 171.104C241.067 168.138 242.58 165.754 245.477 164.405C246.286 164.02 247.034 163.497 247.774 162.964C253.466 158.886 252.387 153.476 249.526 149.597C249.058 148.958 248.448 148.417 247.949 147.802C246.37 145.857 244.812 143.876 243.037 141.648C242.402 142.436 241.422 143.384 240.796 144.538C240.046 145.895 240.554 146.876 242.069 147.361C247.408 149.04 247.173 153.207 244.999 156.535C244.107 157.905 242.925 159.086 241.764 160.25C237.046 164.965 235.761 171.02 238.591 177.37L238.562 177.377ZM255.474 152.549C255.622 153.108 255.789 153.669 255.908 154.235C257.091 160.546 256.125 168.06 248.729 171.38C244.551 173.244 243.766 176.923 243.689 180.74C245.915 180.071 248.259 179.527 250.469 178.649C255.358 176.719 260.382 172.486 260.579 165.615C260.725 160.501 258.185 156.515 255.484 152.541L255.474 152.549ZM187.462 105.869C189.411 106.784 191.323 106.879 193.387 106.053C194.375 105.658 195.325 105.175 196.299 104.742C201.311 102.524 205.679 103.53 209.593 107.284C210.915 108.555 212.406 109.723 214.009 110.63C216.134 111.844 217.659 111.421 219.164 109.842C217.472 108.617 215.673 107.427 214.021 106.083C212.378 104.75 210.953 103.121 209.255 101.867C203.382 97.5631 196.783 98.0788 191.519 102.999C190.324 104.122 188.825 104.932 187.49 105.863L187.462 105.869ZM220.564 158.351C224.717 156.728 228.682 155.208 232.608 153.6C233.079 153.405 233.586 152.67 233.601 152.165C233.658 150.896 234.293 150.108 235.229 149.399C235.706 149.045 236.086 148.55 236.525 148.108C235.235 147.168 234.644 147.172 232.926 147.463C231.982 147.618 230.849 147.688 230.037 147.294C226.806 145.722 224.507 146.552 223.125 149.934C222.86 150.591 222.458 151.393 221.883 151.69C220.297 152.519 220.058 153.732 220.317 155.306C220.455 156.146 220.461 156.99 220.564 158.351ZM205.134 114.932C205.132 114.763 205.131 114.594 205.13 114.425C203.7 114.38 202.234 114.143 200.826 114.335C197.196 114.802 194.064 113.812 191.056 111.802C189.092 110.492 186.903 109.449 184.721 108.52C183.473 107.987 182.034 107.932 180.685 107.651C180.641 107.806 180.605 107.971 180.561 108.126C184.029 108.861 186.75 110.831 189.241 113.208C190.82 114.713 192.48 116.151 194.761 116.491C198.39 117.026 201.774 116.046 205.134 114.932ZM199.164 162.985C198.247 164.869 197.842 166.692 196.717 167.776C194.874 169.544 192.599 170.865 190.472 172.304C189.654 172.866 188.738 173.287 187.862 173.777C187.927 173.962 187.992 174.147 188.058 174.332C189.62 174.185 191.193 174.113 192.728 173.869C193.596 173.725 194.903 173.514 195.179 172.933C196.341 170.494 198.869 169.631 200.555 167.837C201.884 166.418 202.789 164.833 203.221 162.75C201.58 162.842 200.165 162.92 199.175 162.977L199.164 162.985ZM210.311 161.647C208.328 161.967 206.597 162.2 204.89 162.567C204.544 162.643 204.144 163.155 204.04 163.529C203.19 166.75 201.101 168.99 198.462 170.845C197.875 171.253 197.372 171.763 196.603 172.405C198.37 172.448 199.771 172.5 201.18 172.477C201.462 172.469 201.911 172.206 202.002 171.962C202.931 169.611 204.772 168.133 206.754 166.745C208.453 165.552 209.628 163.986 210.282 161.654L210.311 161.647ZM202.953 172.108C203.096 172.263 203.25 172.41 203.401 172.576C205.348 172.609 206.942 171.706 208.388 170.515C211.494 167.959 212.733 164.149 214.66 160.664C213.347 161.034 211.65 161.393 211.224 162.333C210.065 164.922 208.349 166.826 206.173 168.541C204.928 169.518 204.015 170.905 202.953 172.108ZM270.523 100.215C272.73 103.519 274.969 106.883 277.077 110.065C277.374 104.489 274.409 100.083 270.523 100.215Z" fill="#331E10"/>
</g>
<g clip-path="url(#clip1_296_9119)">
<path d="M83.6028 240.436C83.1385 239.867 82.7261 239.22 82.1914 238.732C81.4004 238.006 79.9636 237.597 80.4459 236.194C80.9134 234.813 82.3536 234.6 83.5599 234.757C85.4429 235.003 86.9754 234.724 88.6412 233.607C90.5842 232.292 93.9648 233.948 95.2918 236.3C95.8021 237.204 96.7702 237.857 97.4466 238.681C97.9695 239.306 98.5401 239.979 98.7716 240.728C98.9995 241.457 98.8623 242.325 98.7955 243.113C98.677 244.617 99.3355 245.349 100.817 245.644C107.475 246.95 114.171 247.417 120.948 247.026C130.38 246.474 139.714 245.07 148.857 242.786C157.517 240.625 166.157 238.209 174.089 233.924C175.776 233.013 177.361 231.873 178.836 230.66C181.01 228.861 180.984 225.53 179.039 223.145C178.059 221.94 176.899 221.286 175.346 221.263C173.852 221.248 172.362 221.155 170.78 221.08C170.598 223.486 168.838 224.172 167.003 224.663C164.18 225.432 161.385 224.971 158.584 224.378C157.518 224.155 156.363 224.112 155.28 224.246C154.289 224.363 153.884 225.034 154.173 226.125C154.79 228.461 153.939 229.889 151.516 230.207C150.006 230.405 148.432 230.175 146.898 230.101C146.154 230.064 145.408 229.912 144.665 229.827C141.542 229.498 141.561 229.494 140.754 232.423C140.127 234.657 138.38 235.848 136.381 236.58C134.168 237.393 131.918 237.123 129.859 235.975C127.426 234.622 126.928 232.109 128.437 229.493C129.369 227.897 129.08 226.95 127.482 226.4C126.192 225.963 125.405 226.536 125.413 227.902C125.435 231.855 122.775 233.806 119.076 232.527C116.178 231.532 115.322 228.506 117.23 226.128C117.493 225.809 117.815 225.402 117.821 225.038C117.887 223.066 119.211 222.55 120.813 222.334C121.605 222.228 122.451 222.303 123.199 222.071C124.01 221.818 125.289 221.416 125.381 220.902C125.506 220.17 124.964 219.004 124.33 218.496C121.809 216.492 118.912 215.258 115.614 215.306C114.384 215.326 113.151 215.47 111.95 215.684C110.233 215.999 108.621 216.064 106.924 215.352C106.164 215.031 105.04 215.297 104.144 215.557C102.497 216.031 100.95 216.876 99.2959 217.217C97.649 217.546 95.8745 217.662 94.2233 217.429C91.7851 217.081 90.9437 214.768 92.5144 212.867C93.3442 211.874 94.5441 211.163 95.6302 210.407C96.4873 209.801 97.4138 209.305 98.5694 208.612C97.9091 208.215 97.4872 207.962 97.0469 207.713C95.3042 206.714 95.2211 205.057 97.0586 204.184C98.2061 203.645 99.6391 203.395 100.912 203.502C103.093 203.661 105.233 204.191 107.398 204.563C108.042 204.677 108.696 204.799 109.426 204.571C107.488 203.647 105.587 202.669 103.626 201.827C99.4878 200.06 95.3309 198.345 91.1702 196.659C90.7038 196.472 90.1069 196.598 89.5697 196.588C89.8135 197.104 89.9165 197.782 90.3159 198.115C92.2283 199.741 92.2205 201.177 90.1225 202.579C89.3284 203.115 88.461 203.571 87.5686 203.897C84.3938 205.021 82.7402 207.283 82.3545 210.56C81.9918 213.66 79.8846 214.72 77.4112 212.715C75.7109 211.345 74.3197 211.367 72.4463 212.056C69.5294 213.129 67.4068 211.602 65.443 209.269C65.1329 210.132 64.7427 210.829 64.6283 211.568C64.1175 214.841 63.5957 218.106 63.2614 221.402C63.0709 223.274 62.8664 225.025 61.1811 226.337C62.6647 227.626 64.0787 228.852 65.6318 230.203C67.7992 228.912 70.3041 228.473 72.861 229.333C74.088 229.745 75.3432 230.399 76.3028 231.255C78.559 233.273 78.6159 234.992 76.6479 237.554C78.8056 238.721 80.9303 239.866 83.0476 241.022C83.229 240.824 83.403 240.637 83.5734 240.432L83.6028 240.436Z" fill="white"/>
<path d="M96.3053 210.783C95.274 211.623 94.1109 212.327 93.2407 213.309C91.9855 214.719 92.5552 216.224 94.3929 216.679C96.6791 217.229 98.8571 216.681 100.992 215.912C102.154 215.495 103.257 214.927 104.451 214.628C105.354 214.405 106.459 214.19 107.252 214.533C108.905 215.215 110.496 215.088 112.124 214.762C116.206 213.93 120.008 214.653 123.533 216.807C124.38 217.33 125.216 217.99 125.834 218.759C127.245 220.511 126.587 222.388 124.391 222.891C123.256 223.15 122.067 223.181 120.892 223.333C119.743 223.47 118.869 223.841 118.762 225.257C118.718 225.82 118.27 226.414 117.877 226.901C116.858 228.198 116.916 229.726 118.084 230.914C119.072 231.916 121.245 232.325 122.595 231.7C124.067 231.012 124.736 229.831 124.52 228.181C124.372 227.072 124.605 226.109 125.741 225.659C127.106 225.107 128.262 225.647 129.255 226.572C130.038 227.309 130.309 228.26 129.715 229.188C128.624 230.901 127.691 232.64 129.404 234.419C131.142 236.232 133.445 236.425 135.678 235.819C138.012 235.184 139.742 233.758 140.04 231.061C140.264 229.116 140.818 228.673 142.79 228.787C144.501 228.885 146.185 229.188 147.899 229.304C149.11 229.384 150.379 229.472 151.561 229.261C153.278 228.947 153.706 228.051 153.266 226.378C152.848 224.815 153.284 223.765 154.861 223.468C156.132 223.221 157.481 223.427 158.791 223.478C161.44 223.584 164.092 223.901 166.728 223.742C167.73 223.681 168.663 222.534 169.624 221.869C168.668 221.625 167.713 221.237 166.735 221.169C156.342 220.465 146.42 217.711 136.626 214.338C132.692 212.981 128.593 212.057 124.666 210.689C120.688 209.302 116.818 207.588 112.881 206.069C112.014 205.741 111.043 205.662 110.117 205.517C108.962 205.33 107.8 205.203 106.638 205.027C104.574 204.74 102.527 204.335 100.452 204.184C99.5395 204.113 98.5187 204.369 97.6885 204.769C96.3084 205.439 96.3813 206.256 97.6502 207.08C98.2737 207.485 98.7562 208.098 99.3165 208.62C98.7393 209.191 98.1912 209.814 97.5774 210.344C97.2668 210.615 96.8209 210.73 96.4407 210.938C96.4041 210.897 96.3675 210.856 96.3383 210.805L96.3053 210.783Z" fill="#331E10"/>
<path d="M79.4127 192.378C70.4703 190.188 61.8329 188.091 52.8279 189.316C50.2498 189.674 47.6808 190.374 45.2395 191.288C44.1626 191.698 43.2287 192.893 42.5717 193.938C41.3243 195.93 40.242 198.033 39.2295 200.151C37.7593 203.209 38.1284 205.058 40.4634 207.482C44.1379 211.288 47.7088 215.202 51.5127 218.888C53.7643 221.079 56.3526 222.936 58.8337 224.882C60.054 225.849 60.9679 225.633 61.5976 224.201C61.9666 223.346 62.1265 222.349 62.1537 221.407C62.2877 217.032 63.0687 212.789 64.6879 208.727C64.8596 208.283 64.9947 207.798 65.0009 207.338C65.1137 202.804 67.6356 199.896 71.6038 198.379C74.2555 197.366 76.5947 196.271 77.9925 193.677C78.223 193.24 78.7619 192.963 79.4163 192.396L79.4127 192.378Z" fill="white"/>
<path d="M154.066 243.227C157.892 244.959 161.639 246.926 165.587 248.357C171.901 250.647 178.535 251.04 185.23 250.914C192.22 250.779 197.57 247.473 202.277 242.725C205.027 239.954 207.703 237.101 210.427 234.297C215.712 228.835 221.755 224.811 229.633 224.379C229.832 224.369 230.045 224.289 230.823 224.11C229.338 223.156 228.271 222.34 227.1 221.775C225.389 220.941 223.616 220.225 221.827 219.626C221.305 219.45 220.501 219.693 219.999 220.01C217.178 221.82 214.363 223.667 211.622 225.596C206.638 229.117 201.888 233.003 196.707 236.199C186.519 242.5 175.392 244.214 163.65 241.88C162.764 241.699 161.923 241.356 161.048 241.086C160.795 241.011 160.52 240.825 160.302 240.887C158.249 241.439 156.214 242.035 154.176 242.613C154.149 242.819 154.104 243.028 154.077 243.234L154.066 243.227Z" fill="white"/>
<path d="M180.103 222.279C182.432 226.491 182.552 230.109 177.926 232.911C178.554 233.047 178.863 233.159 179.172 233.175C185.99 233.532 191.589 230.57 196.485 226.302C199.935 223.299 202.971 219.793 206.129 216.465C208.112 214.378 210.326 212.686 213.033 211.615C216.555 210.213 220.067 209.396 224.015 211.659C223.537 209.544 223.138 207.786 222.761 206.043C222.297 203.954 221.79 201.883 221.411 199.787C220.718 195.926 221.759 192.483 224.121 189.386C224.373 189.06 224.61 188.708 224.672 188.046C223.953 188.377 223.179 188.623 222.514 189.039C218.378 191.611 215.162 195.028 212.864 199.336C209.927 204.83 206.565 210.004 201.78 214.156C196.659 218.592 190.859 221.211 184.081 221.649C182.826 221.731 181.595 222.037 180.114 222.287L180.103 222.279Z" fill="white"/>
<path d="M162.138 240.396C162.729 240.587 163.155 240.762 163.593 240.849C174.566 243.113 185.128 241.786 194.743 236.075C200.964 232.38 206.679 227.799 212.542 223.496C215.395 221.402 218.123 219.161 221.803 218.618C222.175 218.564 222.611 218.107 222.816 217.732C223.158 217.083 223.419 216.363 223.604 215.639C224.315 212.662 223.439 211.303 220.327 211.076C215.865 210.739 211.995 212.466 208.751 215.353C206.414 217.442 204.366 219.885 202.259 222.226C199.345 225.478 196.055 228.268 192.34 230.549C187.831 233.318 182.97 234.664 177.644 234.113C177.04 234.058 176.352 234.106 175.795 234.338C171.424 236.192 167.085 238.115 162.732 240.013C162.592 240.078 162.466 240.17 162.134 240.378L162.138 240.396Z" fill="white"/>
<path d="M224.25 187.201C218.075 187.054 213.086 188.874 208.662 192.42C204.899 195.436 202.342 199.393 200.012 203.488C196.126 210.294 190.579 215.196 183.474 218.326C180.496 219.631 177.356 219.258 174.338 218.439C173.177 218.12 171.978 217.311 171.17 216.398C168.894 213.839 166.071 213.231 162.886 213.563C158.261 214.061 153.65 214.632 149.006 215.086C147.158 215.263 145.3 215.194 143.095 215.26C143.554 215.457 143.697 215.554 143.859 215.599C153.3 218.046 162.716 220.555 172.622 220.034C174.816 219.914 177.158 219.764 179.089 221.339C179.257 221.469 179.592 221.47 179.832 221.424C182.418 221.007 184.996 220.602 187.575 220.148C195.362 218.806 201.084 214.167 205.886 208.282C207.979 205.725 209.779 202.889 211.355 199.983C214.307 194.563 218.367 190.323 224.221 187.197L224.25 187.201Z" fill="white"/>
<path d="M88.8679 195.73C86.0234 194.964 83.3781 194.14 80.6723 193.595C80.0068 193.467 78.8225 194.012 78.4513 194.61C77.0294 196.884 75.0681 198.202 72.5283 198.954C69.4207 199.883 67.2529 201.958 66.18 205.044C65.5556 206.848 65.8188 208.546 67.2172 209.937C68.6596 211.358 70.3855 212.074 72.3222 211.219C74.3918 210.311 76.0619 210.445 77.9124 211.949C79.924 213.594 81.43 212.785 81.7749 210.233C82.2459 206.853 83.8309 204.337 87.1792 203.122C88.1269 202.785 89.0167 202.249 89.8406 201.668C91.1188 200.769 91.1419 199.905 89.9064 199.007C88.7956 198.21 88.0568 197.36 88.842 195.745L88.8679 195.73Z" fill="#331E10"/>
<path d="M87.7425 274.711C87.6371 274.464 87.612 274.335 87.546 274.29C83.0883 271.716 81.0175 267.406 79.2828 262.859C78.9163 261.907 78.6492 260.927 78.3195 259.968C77.4533 257.479 75.9324 255.605 73.3947 254.598C72.2637 254.139 71.1851 253.508 70.2027 252.781C65.166 249.048 64.3215 243.228 68.066 238.151C69.0782 236.769 70.303 235.546 71.2528 234.138C71.9725 233.071 72.4282 231.826 72.9975 230.674C72.888 230.504 72.7785 230.334 72.6875 230.16C71.3404 230.164 69.9612 230.002 68.6351 230.212C66.495 230.561 66.4781 230.966 66.3119 233.111C66.2008 234.604 65.6883 236.147 65.0369 237.516C62.3605 243.122 62.1238 248.788 64.6955 254.396C65.4522 256.027 67.1088 257.32 68.5263 258.565C69.3872 259.305 70.5551 259.757 71.657 260.164C75.1833 261.438 77.2345 263.926 77.6859 267.576C78.0598 270.581 80.2804 272.367 82.092 274.261C83.4607 275.696 85.7487 275.223 87.7461 274.729L87.7425 274.711Z" fill="white"/>
<path d="M134.374 190.507C132.373 188.917 130.545 188.709 128.481 189.893C125.28 191.72 122.083 192.141 118.521 190.73C112.715 188.447 109.154 189.55 104.97 194.235C103.492 195.879 101.737 197.272 100.002 198.871C101.687 199.623 103.49 200.487 105.352 201.214C105.723 201.353 106.379 201.043 106.764 200.758C108.959 199.118 111.406 198.384 114.125 198.553C117.396 198.758 120.202 197.658 122.698 195.596C125.981 192.865 129.663 191.059 133.986 190.725C134.118 190.719 134.244 190.58 134.381 190.496L134.374 190.507Z" fill="white"/>
<path d="M81.7604 266.115C84.0411 259.506 82.2036 253.545 77.056 249.241C75.7884 248.178 74.4877 247.092 73.4826 245.806C71.0079 242.664 70.401 238.51 75.6019 236.352C77.07 235.741 77.4988 234.702 76.6262 233.409C75.8886 232.32 74.8113 231.449 74.1234 230.713C72.5427 233.104 71.1475 235.22 69.7487 237.318C69.3035 237.978 68.7408 238.574 68.3286 239.257C65.8074 243.398 65.2071 248.915 71.2751 252.496C72.0528 252.957 72.86 253.421 73.7048 253.735C76.7278 254.829 78.4454 257.076 79.508 259.986C80.2514 262.04 81.0281 264.068 81.7899 266.118L81.7604 266.115Z" fill="white"/>
<path d="M62.6055 242.759C60.242 246.975 58.0626 251.203 58.6643 256.315C59.4737 263.183 64.8854 266.977 69.9562 268.477C72.249 269.159 74.6358 269.488 76.9371 269.968C76.5197 266.149 75.3982 262.544 71.0526 261.037C63.3272 258.371 61.7002 250.936 62.3311 244.495C62.3895 243.91 62.5177 243.34 62.6165 242.767L62.6055 242.759Z" fill="white"/>
<path d="M126.593 189.916C125.173 189.103 123.598 188.424 122.301 187.405C116.587 182.943 109.918 183.007 104.427 187.85C102.826 189.251 101.554 191.018 100.026 192.5C98.4719 193.997 96.7938 195.346 95.2075 196.725C96.8558 198.173 98.4221 198.461 100.443 197.055C101.957 195.996 103.348 194.693 104.57 193.309C108.159 189.199 112.446 187.801 117.667 189.578C118.68 189.925 119.676 190.324 120.701 190.632C122.843 191.276 124.74 191.003 126.623 189.92L126.593 189.916Z" fill="white"/>
<path d="M98.0947 245.457C98.0763 244.084 97.9963 243.23 98.0708 242.384C98.1934 240.802 97.843 239.589 96.1795 238.899C95.5773 238.653 95.103 237.885 94.7788 237.25C93.0815 233.977 90.7147 233.357 87.6168 235.221C86.8378 235.688 85.6967 235.718 84.7365 235.647C82.9891 235.509 82.4073 235.564 81.1872 236.614C81.6781 237.025 82.0915 237.48 82.6014 237.792C83.6028 238.419 84.3091 239.152 84.4789 240.419C84.5498 240.931 85.1238 241.622 85.6015 241.768C89.6724 243.041 93.7771 244.193 98.0947 245.457Z" fill="#331E10"/>
<path d="M109.691 200.572C113.157 201.389 116.635 202.07 120.224 201.21C122.479 200.667 124.026 199.085 125.463 197.429C127.748 194.825 130.299 192.608 133.709 191.563C133.651 191.412 133.6 191.25 133.542 191.098C132.215 191.5 130.779 191.683 129.576 192.328C127.472 193.454 125.371 194.694 123.519 196.182C120.684 198.463 117.623 199.728 113.954 199.59C112.53 199.542 111.089 199.898 109.649 200.064C109.663 200.233 109.677 200.402 109.691 200.572Z" fill="white"/>
<path d="M119.952 248.195C118.944 248.219 117.519 248.267 115.877 248.328C116.485 250.37 117.536 251.896 119.001 253.188C120.851 254.836 123.461 255.475 124.843 257.816C125.171 258.374 126.499 258.469 127.382 258.537C128.953 258.652 130.536 258.583 132.104 258.584C132.153 258.393 132.201 258.202 132.25 258.011C131.329 257.597 130.374 257.257 129.504 256.767C127.24 255.496 124.836 254.386 122.842 252.785C121.618 251.8 121.05 250.008 119.963 248.203L119.952 248.195Z" fill="white"/>
<path d="M108.674 247.855C109.537 250.134 110.865 251.606 112.663 252.642C114.773 253.857 116.749 255.174 117.889 257.448C118.013 257.691 118.475 257.907 118.759 257.89C120.172 257.787 121.572 257.611 123.34 257.411C122.518 256.825 121.961 256.369 121.338 256.012C118.546 254.385 116.242 252.319 115.096 249.178C114.965 248.801 114.512 248.335 114.159 248.289C112.415 248.074 110.66 247.994 108.644 247.851L108.674 247.855Z" fill="white"/>
<path d="M116.979 257.682C115.807 256.571 114.769 255.263 113.434 254.394C111.101 252.869 109.212 251.114 107.819 248.623C107.32 247.726 105.569 247.521 104.227 247.256C106.477 250.566 108.039 254.277 111.39 256.569C112.942 257.616 114.623 258.398 116.571 258.191C116.701 258.022 116.841 257.861 116.979 257.682Z" fill="white"/>
<path d="M42.8676 191.625C38.9616 191.839 36.3748 196.529 37.1766 202.079C39.0166 198.711 40.9606 195.14 42.8676 191.625Z" fill="white"/>
<path d="M75.4797 237.838C79.6211 241.048 84.5184 242.638 89.4461 244.041C92.9371 245.036 96.5217 245.725 100.095 246.406C101.573 246.683 102.663 247.322 103.503 248.545C104.993 250.702 106.409 252.922 108.065 254.951C110.865 258.392 114.404 260.123 118.977 259.014C121.369 258.434 123.708 258.811 126.108 259.31C128.148 259.726 130.339 259.491 132.456 259.414C132.912 259.402 133.35 258.801 133.793 258.476C133.457 258.025 133.218 257.383 132.774 257.164C130.564 256.073 128.161 255.317 126.111 254.014C124.552 253.027 123.243 251.503 122.136 249.988C121.189 248.71 121.62 248.12 123.251 248.003C132.462 247.35 141.528 245.798 150.49 243.664C151.385 243.452 152.518 243.624 153.392 243.989C155.11 244.716 156.725 245.692 158.376 246.566C167.705 251.434 177.65 252.684 188 251.742C194.348 251.158 198.987 247.532 203.271 243.316C205.791 240.838 208.146 238.201 210.574 235.645C214.453 231.555 218.679 227.971 224.219 226.378C226.11 225.829 228.106 225.67 230.044 225.265C230.567 225.153 231.316 224.826 231.432 224.44C231.541 224.066 231.118 223.268 230.707 223.023C228.429 221.679 226.088 220.452 223.541 219.054C223.526 219.172 223.509 218.793 223.651 218.488C225.403 215.012 225.062 211.437 224.216 207.825C223.554 204.962 222.801 202.117 222.249 199.232C221.569 195.684 222.8 192.625 224.906 189.788C225.596 188.861 225.929 187.678 226.421 186.617C225.299 186.452 224.168 186.137 223.049 186.135C214.893 186.076 208.504 189.641 203.604 195.956C201.74 198.363 200.103 200.957 198.558 203.58C194.929 209.743 189.774 214.205 183.377 217.189C179.178 219.142 174.466 217.965 171.175 214.753C168.711 212.355 165.606 212.021 162.336 212.408C157.821 212.932 153.313 213.637 148.781 213.83C145.73 213.964 142.581 213.649 139.559 213.051C134.526 212.041 129.468 210.95 124.604 209.334C119.435 207.624 114.486 205.279 109.456 203.198C108.739 202.907 108.053 202.573 107.341 202.252C107.375 202.083 107.401 201.925 107.447 201.763C108.197 201.789 108.959 201.775 109.713 201.868C112.052 202.149 114.365 202.588 116.708 202.744C120.236 202.995 123.257 201.72 125.543 199.02C128.224 195.851 131.3 193.332 135.391 192.154C136.995 191.699 137.003 190.856 135.625 189.814C133.587 188.28 131.309 187.623 128.825 188.173C126.57 188.669 124.8 188.019 123.059 186.589C116.794 181.451 109.104 181.77 103.111 187.427C101.52 188.931 100.215 190.724 98.6613 192.269C97.6512 193.268 96.4944 194.152 95.2978 194.93C93.8722 195.857 92.3523 195.856 90.688 195.31C82.7675 192.672 74.8925 189.778 66.551 188.761C62.5862 188.279 58.5569 188.155 54.5566 188.129C52.7864 188.12 50.998 188.754 49.2222 189.109C47.2916 189.503 45.3569 189.975 43.4229 190.303C39.1572 191.027 36.0792 194.665 35.8168 198.97C35.5794 202.715 36.7669 205.677 39.4762 208.305C42.4308 211.162 45.093 214.334 47.9365 217.308C52.2439 221.814 57.1959 225.554 62.3627 229.023C65.531 231.16 66.0211 233.091 64.2837 236.545C62.5055 240.083 60.6428 243.581 58.9379 247.152C57.7021 249.744 57.1718 252.523 57.3549 255.432C57.8363 263.071 63.0269 267.596 69.758 269.672C71.0293 270.065 72.3753 270.253 73.6729 270.536C75.8271 270.996 77.71 271.93 79.1915 273.602C81.9571 276.715 85.3695 276.568 88.9452 275.491C89.2807 275.397 89.6435 275.001 89.7409 274.667C89.8008 274.483 89.3871 274.076 89.1011 273.883C88.3971 273.408 87.6004 273.047 86.8963 272.572C83.9808 270.654 82.7503 268.159 83.5758 264.539C85.1133 257.893 82.5582 252.616 77.5763 248.28C76.4041 247.265 75.2948 246.181 74.2446 245.056C73.7872 244.572 73.4559 243.9 73.2091 243.269C72.1487 240.617 72.7751 239.119 75.4244 237.849L75.4797 237.838ZM83.6028 240.436C83.4214 240.634 83.2475 240.821 83.0771 241.026C80.9523 239.881 78.835 238.725 76.6773 237.558C78.6454 234.996 78.5774 233.269 76.3322 231.259C75.3726 230.403 74.11 229.76 72.8904 229.338C70.3336 228.477 67.8286 228.916 65.6613 230.208C64.1081 228.856 62.6941 227.63 61.2105 226.341C62.8958 225.029 63.1003 223.278 63.2908 221.406C63.6251 218.11 64.1469 214.845 64.6577 211.572C64.7721 210.833 65.1623 210.136 65.4724 209.273C67.4472 211.613 69.5698 213.141 72.4758 212.06C74.3491 211.371 75.7514 211.356 77.4406 212.72C79.903 214.717 82.0028 213.668 82.3839 210.564C82.7696 207.287 84.4232 205.025 87.598 203.901C88.5014 203.582 89.3652 203.108 90.1519 202.583C92.2499 201.181 92.2577 199.746 90.3453 198.12C89.946 197.786 89.8429 197.108 89.5991 196.592C90.1289 196.613 90.7332 196.477 91.1996 196.663C95.3603 198.349 99.5172 200.064 103.655 201.831C105.616 202.673 107.528 203.659 109.456 204.575C108.715 204.795 108.071 204.681 107.428 204.568C105.262 204.195 103.123 203.665 100.941 203.506C99.6721 203.418 98.2355 203.649 97.088 204.188C95.2505 205.061 95.3336 206.718 97.0764 207.717C97.5167 207.966 97.9311 208.23 98.5988 208.616C97.4357 209.32 96.5093 209.816 95.6596 210.411C94.5735 211.167 93.3736 211.878 92.5438 212.871C90.9547 214.776 91.7961 217.088 94.2527 217.433C95.9039 217.666 97.6784 217.551 99.3253 217.221C100.983 216.899 102.537 216.042 104.174 215.562C105.062 215.312 106.183 215.028 106.954 215.356C108.65 216.068 110.262 216.003 111.979 215.688C113.187 215.463 114.414 215.33 115.643 215.311C118.941 215.262 121.838 216.496 124.359 218.501C124.993 219.008 125.543 220.163 125.41 220.906C125.319 221.421 124.043 221.841 123.229 222.075C122.48 222.307 121.634 222.232 120.842 222.339C119.251 222.562 117.916 223.07 117.85 225.042C117.837 225.418 117.511 225.806 117.259 226.132C115.333 228.514 116.196 231.529 119.105 232.531C122.794 233.802 125.472 231.848 125.442 227.906C125.435 226.541 126.222 225.967 127.511 226.405C129.098 226.947 129.387 227.894 128.466 229.497C126.947 232.106 127.463 234.615 129.889 235.979C131.947 237.127 134.198 237.397 136.41 236.584C138.409 235.852 140.156 234.661 140.783 232.427C141.601 229.506 141.579 229.491 144.694 229.832C145.437 229.917 146.184 230.068 146.927 230.105C148.472 230.187 150.046 230.416 151.545 230.211C153.969 229.893 154.819 228.466 154.202 226.129C153.914 225.038 154.326 224.356 155.309 224.251C156.396 224.135 157.547 224.16 158.613 224.383C161.415 224.975 164.209 225.436 167.032 224.667C168.868 224.177 170.627 223.49 170.809 221.085C172.381 221.152 173.882 221.252 175.376 221.267C176.936 221.28 178.088 221.945 179.068 223.15C181.02 225.523 181.039 228.865 178.865 230.664C177.383 231.889 175.798 233.028 174.119 233.928C166.186 238.214 157.547 240.629 148.886 242.791C139.743 245.075 130.417 246.467 120.978 247.031C114.204 247.439 107.497 246.965 100.846 245.649C99.3649 245.354 98.7064 244.621 98.8249 243.117C98.8807 242.322 99.0179 241.454 98.801 240.732C98.5695 239.983 97.988 239.303 97.4761 238.686C96.7886 237.854 95.8316 237.208 95.3212 236.304C93.9942 233.952 90.6136 232.296 88.6707 233.611C87.0232 234.724 85.4723 235.007 83.5893 234.761C82.383 234.604 80.9503 234.806 80.4754 236.198C79.993 237.601 81.4188 238.003 82.2209 238.736C82.7665 239.232 83.1679 239.871 83.6323 240.44L83.6028 240.436ZM96.3054 210.783C96.3054 210.783 96.3785 210.864 96.4077 210.916C96.7915 210.726 97.2264 210.603 97.5444 210.322C98.1582 209.791 98.7099 209.187 99.2835 208.598C98.7342 208.083 98.2481 207.451 97.6172 207.058C96.3483 206.234 96.2754 205.416 97.6555 204.747C98.4857 204.346 99.5065 204.091 100.419 204.162C102.494 204.313 104.542 204.718 106.605 205.005C107.763 205.162 108.929 205.308 110.084 205.495C111.01 205.639 111.989 205.707 112.848 206.047C116.793 207.555 120.655 209.28 124.633 210.667C128.571 212.042 132.659 212.959 136.593 214.316C146.387 217.688 156.309 220.443 166.702 221.147C167.669 221.207 168.617 221.606 169.591 221.847C168.619 222.504 167.686 223.651 166.695 223.72C164.07 223.886 161.408 223.562 158.758 223.456C157.448 223.405 156.088 223.191 154.828 223.446C153.244 223.754 152.815 224.793 153.233 226.356C153.673 228.029 153.245 228.925 151.528 229.239C150.338 229.461 149.088 229.37 147.866 229.282C146.163 229.173 144.468 228.862 142.757 228.765C140.785 228.651 140.231 229.094 140.007 231.039C139.698 233.728 137.968 235.154 135.646 235.796C133.412 236.403 131.109 236.21 129.371 234.397C127.676 232.614 128.591 230.878 129.682 229.165C130.276 228.238 130.016 227.294 129.222 226.55C128.229 225.625 127.066 225.096 125.708 225.637C124.583 226.094 124.35 227.057 124.488 228.158C124.703 229.808 124.023 230.982 122.562 231.678C121.223 232.311 119.039 231.894 118.051 230.891C116.876 229.715 116.825 228.176 117.844 226.879C118.226 226.384 118.678 225.809 118.729 225.235C118.836 223.818 119.703 223.459 120.859 223.31C122.027 223.169 123.215 223.139 124.358 222.869C126.554 222.366 127.223 220.496 125.801 218.737C125.183 217.968 124.347 217.308 123.5 216.785C119.975 214.631 116.181 213.897 112.091 214.739C110.455 215.077 108.876 215.212 107.219 214.511C106.43 214.186 105.321 214.383 104.418 214.606C103.232 214.894 102.121 215.473 100.959 215.89C98.8241 216.659 96.6461 217.207 94.3599 216.657C92.5148 216.213 91.9525 214.697 93.2077 213.287C94.0779 212.305 95.2484 211.59 96.2724 210.76L96.3054 210.783ZM79.4126 192.378C78.7507 192.956 78.2193 193.222 77.9888 193.659C76.591 196.253 74.2518 197.348 71.6001 198.361C67.6319 199.878 65.1099 202.786 64.9972 207.32C64.9836 207.791 64.8595 208.283 64.6842 208.709C63.0686 212.789 62.284 217.014 62.15 221.389C62.1228 222.331 61.9629 223.327 61.5939 224.183C60.9752 225.622 60.0577 225.82 58.83 224.864C56.3489 222.918 53.779 221.057 51.509 218.869C47.7051 215.183 44.1342 211.27 40.4597 207.463C38.1247 205.04 37.7556 203.191 39.2258 200.133C40.2383 198.015 41.3206 195.912 42.568 193.92C43.225 192.875 44.1589 191.68 45.2358 191.27C47.6771 190.356 50.246 189.656 52.8242 189.298C61.8256 188.055 70.4666 190.17 79.409 192.36L79.4126 192.378ZM154.066 243.227C154.093 243.021 154.138 242.812 154.165 242.606C156.203 242.028 158.238 241.431 160.291 240.879C160.508 240.818 160.783 241.004 161.037 241.079C161.9 241.341 162.752 241.691 163.638 241.873C175.381 244.207 186.516 242.482 196.696 236.192C201.877 232.996 206.627 229.109 211.611 225.589C214.352 223.66 217.166 221.813 219.988 220.003C220.49 219.685 221.294 219.443 221.815 219.619C223.616 220.225 225.389 220.941 227.089 221.767C228.271 222.34 229.33 223.167 230.812 224.102C230.034 224.282 229.82 224.362 229.622 224.372C221.732 224.797 215.69 228.82 210.416 234.29C207.703 237.102 205.016 239.947 202.266 242.718C197.567 247.455 192.209 250.771 185.219 250.907C178.524 251.032 171.901 250.647 165.576 248.35C161.638 246.926 157.899 244.948 154.055 243.22L154.066 243.227ZM180.103 222.279C181.577 222.041 182.815 221.723 184.07 221.642C190.848 221.204 196.648 218.585 201.769 214.149C206.554 209.997 209.916 204.822 212.853 199.329C215.151 195.021 218.375 191.593 222.503 189.032C223.168 188.616 223.942 188.37 224.661 188.039C224.599 188.701 224.362 189.053 224.11 189.379C221.745 192.458 220.696 195.912 221.4 199.78C221.779 201.876 222.297 203.954 222.75 206.036C223.138 207.786 223.533 209.526 224.004 211.652C220.056 209.389 216.545 210.206 213.022 211.607C210.326 212.686 208.101 214.37 206.118 216.457C202.953 219.797 199.924 223.292 196.474 226.294C191.578 230.563 185.979 233.525 179.161 233.168C178.852 233.152 178.532 233.032 177.915 232.904C182.549 230.091 182.421 226.484 180.092 222.272L180.103 222.279ZM162.137 240.396C162.47 240.188 162.595 240.097 162.736 240.031C167.089 238.134 171.427 236.21 175.798 234.357C176.355 234.124 177.033 234.069 177.647 234.131C182.973 234.683 187.824 233.329 192.343 230.567C196.058 228.287 199.349 225.497 202.262 222.244C204.369 219.904 206.407 217.453 208.755 215.371C212.005 212.474 215.868 210.758 220.33 211.095C223.443 211.321 224.322 212.699 223.607 215.658C223.441 216.378 223.18 217.098 222.819 217.751C222.615 218.125 222.196 218.579 221.806 218.636C218.134 219.168 215.406 221.41 212.546 223.514C206.689 227.807 200.975 232.388 194.746 236.093C185.132 241.805 174.569 243.132 163.596 240.868C163.158 240.781 162.732 240.606 162.141 240.415L162.137 240.396ZM224.25 187.201C218.396 190.327 214.343 194.556 211.385 199.987C209.798 202.886 207.997 205.721 205.915 208.286C201.114 214.171 195.391 218.81 187.604 220.152C185.033 220.595 182.447 221.011 179.861 221.428C179.611 221.467 179.287 221.473 179.118 221.343C177.187 219.768 174.838 219.929 172.652 220.038C162.745 220.559 153.322 218.061 143.888 215.603C143.726 215.558 143.565 215.465 143.124 215.264C145.322 215.209 147.198 215.275 149.036 215.09C153.661 214.64 158.279 214.057 162.915 213.567C166.108 213.224 168.924 213.843 171.199 216.402C172.007 217.315 173.207 218.124 174.368 218.443C177.385 219.261 180.518 219.646 183.503 218.33C190.616 215.189 196.162 210.287 200.041 203.492C202.371 199.397 204.928 195.44 208.691 192.424C213.115 188.878 218.105 187.058 224.28 187.205L224.25 187.201ZM88.8677 195.73C88.0824 197.345 88.8212 198.196 89.9321 198.993C91.1749 199.88 91.1444 200.755 89.8662 201.654C89.0424 202.234 88.1525 202.771 87.2048 203.108C83.8381 204.326 82.2605 206.831 81.8006 210.218C81.4482 212.782 79.9312 213.583 77.938 211.935C76.095 210.42 74.4249 210.285 72.3479 211.205C70.3927 212.063 68.6742 211.336 67.2428 209.923C65.837 208.542 65.5738 206.844 66.2056 205.03C67.2785 201.944 69.4464 199.869 72.5539 198.94C75.0937 198.188 77.0551 196.87 78.4769 194.596C78.8481 193.998 80.0325 193.452 80.6979 193.581C83.4037 194.126 86.0601 194.957 88.8935 195.716L88.8677 195.73ZM87.7387 274.693C85.7413 275.186 83.4533 275.66 82.0846 274.224C80.2841 272.338 78.0524 270.544 77.6785 267.539C77.2235 263.871 75.1649 261.394 71.6497 260.128C70.5588 259.728 69.3724 259.28 68.519 258.528C67.094 257.295 65.4375 256.002 64.6882 254.36C62.109 248.763 62.3531 243.086 65.0295 237.48C65.6809 236.111 66.1935 234.568 66.3046 233.074C66.4707 230.93 66.4876 230.525 68.6278 230.176C69.9428 229.958 71.3221 230.12 72.6801 230.124C72.7896 230.294 72.8991 230.464 72.9901 230.637C72.4134 231.801 71.9577 233.046 71.2454 234.102C70.2956 235.51 69.0634 236.744 68.0586 238.115C64.3141 243.192 65.1587 249.011 70.1953 252.745C71.1777 253.471 72.2599 254.121 73.3873 254.561C75.9176 255.58 77.4459 257.443 78.3121 259.932C78.6418 260.89 78.9199 261.878 79.2755 262.822C81.0101 267.37 83.081 271.679 87.5387 274.254C87.6047 274.298 87.6187 274.42 87.7351 274.674L87.7387 274.693ZM134.37 190.489C134.233 190.572 134.107 190.712 133.975 190.718C129.652 191.052 125.97 192.857 122.687 195.589C120.203 197.659 117.385 198.751 114.114 198.546C111.395 198.377 108.948 199.111 106.753 200.751C106.368 201.036 105.693 201.349 105.341 201.207C103.479 200.48 101.665 199.609 99.9911 198.863C101.726 197.265 103.492 195.879 104.959 194.227C109.143 189.543 112.704 188.439 118.51 190.723C122.08 192.123 125.277 191.702 128.47 189.886C130.545 188.709 132.362 188.91 134.363 190.5L134.37 190.489ZM81.7677 266.104C80.9985 264.065 80.2293 262.025 79.4859 259.971C78.4343 257.069 76.7056 254.815 73.6826 253.72C72.8379 253.407 72.0417 252.95 71.2529 252.482C65.185 248.901 65.7852 243.384 68.3065 239.242C68.7187 238.56 69.2813 237.963 69.7265 237.303C71.1363 235.213 72.5205 233.089 74.1013 230.698C74.8076 231.431 75.8739 232.294 76.6041 233.395C77.4767 234.688 77.0553 235.716 75.5798 236.337C70.3789 238.495 70.9858 242.65 73.4604 245.792C74.4766 247.085 75.7662 248.163 77.0339 249.226C82.1815 253.531 84.008 259.484 81.7383 266.1L81.7677 266.104ZM62.609 242.73C62.5102 243.304 62.393 243.881 62.3236 244.458C61.7001 250.888 63.3381 258.331 71.045 261C75.3982 262.496 76.5122 266.112 76.9295 269.931C74.6393 269.459 72.2415 269.122 69.9487 268.44C64.8779 266.94 59.4662 263.146 58.6568 256.278C58.0551 251.166 60.2455 246.946 62.598 242.723L62.609 242.73ZM126.608 189.895C124.736 190.985 122.828 191.251 120.686 190.606C119.661 190.299 118.666 189.9 117.652 189.552C112.432 187.776 108.144 189.173 104.555 193.283C103.344 194.675 101.954 195.978 100.428 197.029C98.4072 198.435 96.8409 198.147 95.1926 196.699C96.7789 195.32 98.4755 193.968 100.011 192.475C101.539 190.992 102.822 189.233 104.412 187.824C109.914 182.989 116.572 182.918 122.286 187.38C123.583 188.399 125.158 189.077 126.578 189.891L126.608 189.895ZM98.1095 245.435C93.8029 244.179 89.6946 243.009 85.6163 241.746C85.1276 241.593 84.5535 240.901 84.4937 240.397C84.3239 239.13 83.6175 238.397 82.6162 237.77C82.1063 237.458 81.6819 236.996 81.2019 236.592C82.4111 235.535 83.0039 235.487 84.7513 235.625C85.7115 235.696 86.8525 235.666 87.6316 235.199C90.7294 233.335 93.1072 233.962 94.7936 237.229C95.1177 237.863 95.592 238.631 96.1943 238.878C97.8577 239.567 98.2046 240.762 98.0856 242.362C98.0221 243.215 98.0911 244.062 98.1095 245.435ZM109.705 200.55C109.692 200.381 109.678 200.211 109.664 200.042C111.093 199.869 112.541 199.502 113.969 199.568C117.648 199.713 120.699 198.442 123.534 196.16C125.386 194.672 127.487 193.432 129.59 192.307C130.794 191.662 132.23 191.478 133.557 191.077C133.615 191.228 133.666 191.39 133.724 191.541C130.314 192.586 127.763 194.803 125.478 197.407C124.03 199.056 122.494 200.645 120.239 201.188C116.649 202.048 113.172 201.367 109.705 200.55ZM119.967 248.173C121.054 249.979 121.622 251.771 122.846 252.756C124.85 254.364 127.248 255.485 129.508 256.737C130.377 257.228 131.332 257.568 132.254 257.982C132.205 258.173 132.156 258.364 132.107 258.555C130.529 258.546 128.946 258.615 127.386 258.507C126.503 258.44 125.175 258.344 124.847 257.787C123.464 255.446 120.855 254.806 119.005 253.159C117.547 251.855 116.499 250.348 115.881 248.299C117.534 248.245 118.958 248.197 119.956 248.166L119.967 248.173ZM108.677 247.825C110.694 247.969 112.449 248.048 114.192 248.264C114.545 248.31 114.991 248.787 115.129 249.152C116.268 252.305 118.561 254.364 121.371 255.987C121.995 256.344 122.544 256.81 123.373 257.385C121.605 257.585 120.206 257.762 118.792 257.865C118.509 257.882 118.035 257.658 117.922 257.422C116.783 255.149 114.806 253.832 112.696 252.617C110.888 251.573 109.571 250.108 108.707 247.829L108.677 247.825ZM116.982 257.653C116.853 257.821 116.712 257.982 116.575 258.162C114.627 258.369 112.949 257.605 111.394 256.54C108.054 254.255 106.473 250.548 104.231 247.227C105.581 247.481 107.313 247.689 107.823 248.594C109.216 251.085 111.105 252.84 113.438 254.365C114.773 255.234 115.811 256.542 116.982 257.653ZM42.8674 191.625C40.9494 195.133 39.0054 198.704 37.1764 202.08C36.3821 196.518 38.9614 191.84 42.8674 191.625Z" fill="#331E10"/>
</g>
<defs>
<clipPath id="clip0_296_9119">
<rect width="156.519" height="176.672" fill="white" transform="translate(205.919 15.8862) rotate(50.9223)"/>
</clipPath>
<clipPath id="clip1_296_9119">
<rect width="157.468" height="177.743" fill="white" transform="matrix(-0.559181 0.829046 0.829046 0.559181 100.098 101.365)"/>
</clipPath>
</defs>
</svg>
