<svg width="42" height="20" viewBox="0 0 42 20" fill="none" xmlns="http://www.w3.org/2000/svg">
<path d="M5.26466 4.55498C5.26466 3.90458 4.93112 3.43763 4.4058 3.20415C4.88109 2.95399 5.18128 2.50372 5.18128 1.92836C5.18128 0.927746 4.30574 0.285683 3.22173 0.285683C2.45459 0.285683 1.77084 0.477468 1.20382 0.977776L1.92093 1.71156C2.27115 1.40304 2.69641 1.30298 3.1717 1.30298C3.63032 1.30298 4.02223 1.55313 4.02223 2.01175C4.02223 2.48704 3.72204 2.76221 3.2134 2.76221H2.46293V3.7128H3.20506C3.73872 3.7128 4.10561 4.01298 4.10561 4.52997C4.10561 5.00526 3.67201 5.28877 3.16336 5.28877C2.6297 5.28877 2.13773 5.14701 1.73749 4.78846L0.995361 5.53892C1.64576 6.15597 2.32952 6.32274 3.20506 6.32274C4.36411 6.32274 5.26466 5.63065 5.26466 4.55498Z" fill="white"/>
<path d="M10.9087 6.27271L8.7407 0.335714H7.8318L5.67214 6.27271H6.88122L7.23977 5.22206H9.34941L9.69962 6.27271H10.9087ZM9.04088 4.24646H7.56497L8.31543 2.08679L9.04088 4.24646Z" fill="white"/>
<path d="M16.3178 6.27271L14.2082 2.6955L16.1761 0.335714H14.7669L12.6739 2.92064V0.335714H11.5149V6.27271H12.6739V4.48827L13.4411 3.57104L14.967 6.27271H16.3178Z" fill="white"/>
<path d="M21.5214 6.27271L19.3534 0.335714H18.4445L16.2848 6.27271H17.4939L17.8524 5.22206H19.9621L20.3123 6.27271H21.5214ZM19.6535 4.24646H18.1776L18.9281 2.08679L19.6535 4.24646Z" fill="white"/>
<path d="M25.8548 4.55498C25.8548 3.90458 25.5213 3.43763 24.996 3.20415C25.4713 2.95399 25.7714 2.50372 25.7714 1.92836C25.7714 0.927746 24.8959 0.285683 23.8119 0.285683C23.0448 0.285683 22.361 0.477468 21.794 0.977776L22.5111 1.71156C22.8613 1.40304 23.2866 1.30298 23.7619 1.30298C24.2205 1.30298 24.6124 1.55313 24.6124 2.01175C24.6124 2.48704 24.3122 2.76221 23.8036 2.76221H23.0531V3.7128H23.7952C24.3289 3.7128 24.6958 4.01298 24.6958 4.52997C24.6958 5.00526 24.2622 5.28877 23.7535 5.28877C23.2199 5.28877 22.7279 5.14701 22.3277 4.78846L21.5855 5.53892C22.2359 6.15597 22.9197 6.32274 23.7952 6.32274C24.9543 6.32274 25.8548 5.63065 25.8548 4.55498Z" fill="white"/>
<path d="M31.4989 6.27271L29.3309 0.335714H28.422L26.2623 6.27271H27.4714L27.8299 5.22206H29.9396L30.2898 6.27271H31.4989ZM29.6311 4.24646H28.1551L28.9056 2.08679L29.6311 4.24646Z" fill="white"/>
<path d="M35.9241 1.36968V0.335714H31.6631V1.36968H33.2141V6.27271H34.3731V1.36968H35.9241Z" fill="white"/>
<path d="M41.0046 4.42157C41.0046 3.33756 40.2375 2.57042 39.0784 2.57042H37.9027V0.335714H36.7436V6.27271H39.0784C40.2291 6.27271 41.0046 5.50557 41.0046 4.42157ZM39.8456 4.42157C39.8456 4.91354 39.512 5.23874 38.9867 5.23874H37.9027V3.6044H38.9867C39.512 3.6044 39.8456 3.93794 39.8456 4.42157Z" fill="white"/>
<path d="M11.6252 19.6143L7.28922 7.74028H5.47143L1.1521 19.6143H3.57026L4.28737 17.513H8.50663L9.20707 19.6143H11.6252ZM7.88959 15.5618H4.93777L6.43869 11.2424L7.88959 15.5618Z" fill="white"/>
<path d="M19.3916 13.5272C20.3755 12.9768 20.8592 12.143 20.8592 11.009C20.8592 9.00773 19.425 7.74028 17.1902 7.74028H12.4206V19.6143H17.3904C19.6251 19.6143 21.0259 18.2968 21.0259 16.2122C21.0259 15.3783 20.8091 14.7112 20.2922 14.1609C20.042 13.9108 19.8586 13.7773 19.3916 13.5272ZM14.7387 12.5432V9.80822H17.0068C17.9574 9.80822 18.5411 10.3252 18.5411 11.1757C18.5411 12.0263 17.9574 12.5432 17.0068 12.5432H14.7387ZM14.7387 17.5463V14.6279H17.1569C18.1075 14.6279 18.7078 15.1782 18.7078 16.0788C18.7078 16.9793 18.1075 17.5463 17.1569 17.5463H14.7387Z" fill="white"/>
<path d="M30.3684 9.80822V7.74028H21.8465V9.80822H24.9484V19.6143H27.2665V9.80822H30.3684Z" fill="white"/>
<path d="M39.9625 13.6773V12.8434C39.9625 10.9256 39.6123 9.79154 38.7784 8.94102C37.9446 8.09049 36.8439 7.64022 35.5765 7.64022C34.2923 7.64022 33.1916 8.09049 32.3578 8.94102C31.4406 9.87493 31.1904 10.8255 31.1904 13.1936V13.844C31.1904 15.1615 31.107 17.1294 32.3578 18.4135C33.1916 19.2641 34.2923 19.7143 35.5765 19.7143C36.8606 19.7143 37.9446 19.2807 38.7784 18.4135C40.0459 17.096 39.9625 15.3783 39.9625 13.6773ZM37.6444 13.4605C37.6444 15.8786 37.5443 16.4623 37.0607 17.0127C36.6938 17.4296 36.1768 17.6464 35.5765 17.6464C34.9761 17.6464 34.4758 17.4129 34.0755 17.0127C33.4418 16.3789 33.5085 14.9614 33.5085 13.5105C33.5085 12.0429 33.5419 10.9256 34.0755 10.3419C34.4424 9.92496 34.9761 9.70816 35.5765 9.70816C36.1768 9.70816 36.6938 9.92496 37.0607 10.3419C37.5277 10.8589 37.6444 11.5093 37.6444 13.4605Z" fill="white"/>
</svg>
