<svg width="139" height="70" viewBox="0 0 139 70" fill="none" xmlns="http://www.w3.org/2000/svg">
<path d="M76.6329 0.796954C76.6552 0.774637 76.6775 0.752331 76.6775 0.752331C81.8998 1.02013 87.0997 1.57804 92.2327 2.47072C98.5931 3.58656 104.864 5.19335 110.89 7.46967C113.724 8.54087 116.492 9.74598 119.17 11.1519C121.692 12.4686 124.124 13.9415 126.401 15.6153C128.61 17.2444 130.685 19.0521 132.493 21.1053C134.457 23.3146 136.109 25.7918 137.157 28.5591C137.738 30.0989 138.139 31.7058 138.296 33.3349C138.653 36.7271 137.961 40.2085 136.466 43.2882C135.194 45.8993 133.408 48.2425 131.4 50.318C129.436 52.3265 127.226 54.0895 124.883 55.674C122.54 57.2585 120.062 58.6422 117.541 59.8919C111.917 62.6369 105.958 64.6454 99.8875 66.1407C93.2816 67.7698 86.5418 68.774 79.7573 69.2873C74.178 69.689 68.554 69.7783 62.9747 69.5105C58.7344 69.2873 54.4941 68.9079 50.2984 68.283C45.0316 67.5243 39.8093 66.4084 34.6986 64.8909C31.8197 64.0429 28.9631 63.0609 26.1734 61.9227C23.4061 60.7846 20.6834 59.4902 18.0722 58.0173C15.6396 56.6337 13.3186 55.0938 11.1315 53.3531C8.8998 51.5454 6.82429 49.5146 5.10586 47.216C3.27583 44.7611 1.84753 41.9715 1.17801 38.9587C0.977156 37.9991 0.820932 37.0395 0.798615 36.0576C0.776297 34.8078 0.753977 33.5357 0.977151 32.3083C1.4235 29.541 2.53936 26.8853 4.05694 24.542C5.30671 22.6005 6.82429 20.8152 8.49809 19.2083C10.4174 17.356 12.5152 15.7269 14.7469 14.254C18.9203 11.509 23.4507 9.34431 28.0927 7.55897C32.3107 5.95215 36.6402 4.7024 41.0368 3.69814C47.8659 2.13596 54.8512 1.19866 61.8365 0.796954C62.3052 0.774637 62.7738 0.752309 63.2425 0.729992L63.2202 0.796954C63.2425 0.75232 63.2871 0.730014 63.3317 0.752331C65.3403 0.663064 67.3489 0.618408 69.3351 0.618408C69.7368 0.618408 70.1385 0.618408 70.5402 0.618408V0.68537C70.5402 0.663053 70.5402 0.640725 70.5402 0.618408C72.3256 0.640725 74.111 0.685348 75.8964 0.774615C75.9187 0.774615 75.941 0.796921 75.941 0.819238L75.9187 0.774615C76.1642 0.796932 76.3874 0.819238 76.6329 0.819238V0.796954ZM130.328 36.3477C130.44 34.5623 130.328 32.7547 129.837 31.0363C129.458 29.6303 128.833 28.2913 128.141 27.0192C127.382 25.6579 126.467 24.4082 125.441 23.2254C123.611 21.1722 121.535 19.3422 119.304 17.7577C116.871 16.0394 114.26 14.5887 111.582 13.3167C108.814 12 105.958 10.8841 103.057 9.92452C99.9098 8.89794 96.6961 8.02762 93.4601 7.3358C88.5726 6.30922 83.6182 5.61737 78.6191 5.23798C74.8921 4.97018 71.1874 4.88093 67.4604 4.92557C67.4158 4.92557 67.3489 4.94787 67.3042 4.97019C67.2596 4.94787 67.2373 4.92557 67.1927 4.92557C63.6442 4.99252 60.1181 5.19337 56.5919 5.59507C49.8744 6.33153 43.2015 7.62592 36.7518 9.67906C32.1098 11.1743 27.6017 13.0489 23.3837 15.5037C21.1743 16.7981 19.0542 18.2487 17.0903 19.8778C15.9744 20.8375 14.9255 21.8863 13.9212 22.9799C13.2294 23.7163 12.6268 24.5198 12.0466 25.3455C11.3547 26.3497 10.7521 27.3986 10.2388 28.4921C9.2792 30.5899 8.72126 32.8886 8.74358 35.2095C8.78821 37.6644 9.39079 40.1192 10.4843 42.3286C11.7118 44.8057 13.4748 46.9705 15.4388 48.8674C16.5323 49.9386 17.7151 50.9429 18.9203 51.8579C21.1743 53.554 23.6069 54.9822 26.1065 56.2543C28.8738 57.6603 31.7527 58.8654 34.6986 59.8919C40.0771 61.7889 45.6341 63.0832 51.2358 63.9536C55.543 64.6231 59.8726 65.0471 64.2021 65.248V65.3149C64.2021 65.2926 64.2021 65.2703 64.2021 65.248C64.2914 65.248 64.403 65.2703 64.4923 65.2703C65.4519 65.2926 66.4339 65.2926 67.3935 65.2926C68.554 65.2926 69.7145 65.2926 70.875 65.2926C71.857 65.2926 72.8389 65.2703 73.7986 65.248C74.8252 65.2257 75.8741 65.2257 76.9007 65.1364C82.9487 64.7347 88.9744 63.9536 94.8884 62.5922C97.9236 61.9004 100.914 61.0524 103.86 60.0482C106.761 59.0439 109.596 57.9057 112.341 56.5444C114.996 55.2277 117.541 53.7325 119.928 51.9918C121.022 51.2107 122.049 50.3403 123.031 49.4253C124.035 48.488 124.995 47.5061 125.865 46.4349C126.735 45.3637 127.539 44.2255 128.186 42.9981C128.878 41.6814 129.48 40.32 129.86 38.8694C130.15 38.0437 130.284 37.1957 130.328 36.3477Z" fill="black"/>
<path d="M28.1597 22.6669C28.3159 22.7339 28.3159 22.9124 28.3159 23.0463C28.3159 29.1165 28.3159 35.209 28.3159 41.2791C28.3159 41.3907 28.3828 41.547 28.5167 41.5247C28.673 41.48 28.8069 41.3908 28.9408 41.3015C38.5819 35.4322 48.223 29.5628 57.8864 23.6935C58.2881 23.448 58.6898 23.1802 59.1584 23.0463C59.5155 22.9347 59.8949 22.9124 60.2743 22.9124C65.5412 22.9124 70.8081 22.9124 76.0973 22.9124C76.5213 22.9124 76.9454 23.0017 77.3024 23.2695C77.7488 23.6042 77.9943 24.1621 77.9943 24.6977C77.9943 28.0899 77.9943 31.4821 77.9943 34.8966C77.9943 38.0879 78.0166 41.2568 78.0166 44.4481C78.0166 44.6043 77.9942 44.7829 78.0389 44.9391C78.0612 45.0284 78.1728 45.073 78.2621 45.0507C78.4629 44.9838 78.6191 44.8498 78.7977 44.7383C83.886 41.3907 88.9744 38.0432 94.0627 34.6957C95.7812 33.5575 97.5219 32.4417 99.218 31.3035C99.4858 31.1473 99.7536 30.9465 100.021 30.7679C102.409 29.2058 104.775 27.6436 107.163 26.0814C107.721 25.7243 108.279 25.3449 108.837 24.9879C109.462 24.5638 110.131 24.1398 110.756 23.7158C111.113 23.4926 111.448 23.2472 111.85 23.1133C112.162 23.0017 112.497 22.9571 112.832 22.9571C115.197 22.9571 117.563 22.9571 119.929 22.9571C120.308 22.9347 120.687 23.0017 121.022 23.1802C121.58 23.4703 121.915 24.1175 121.915 24.7424C121.915 29.2727 121.915 33.8254 121.915 38.3557C121.937 39.1144 121.915 39.8732 121.625 40.5874C121.357 41.2345 120.799 41.7478 120.219 42.1049C117.317 43.8679 114.416 45.631 111.537 47.394C111.381 47.4833 111.247 47.6171 111.069 47.5725C110.935 47.5279 110.935 47.3493 110.935 47.2377C110.935 41.8817 110.935 36.548 110.935 31.2143C110.935 31.0581 110.957 30.8795 110.823 30.7456C110.644 30.7233 110.511 30.8572 110.354 30.9464C108.77 31.9953 107.185 33.0219 105.623 34.0708C105.11 34.3832 104.619 34.7403 104.106 35.0528C103.146 35.6776 102.209 36.3025 101.249 36.9274C100.959 37.1059 100.691 37.3067 100.401 37.4853C98.2584 38.8912 96.1159 40.2972 93.9735 41.7032C93.0584 42.3058 92.1434 42.9083 91.2284 43.4885C91.1838 43.5332 91.0945 43.5555 91.0945 43.6224C91.0945 43.6224 91.0722 43.6224 91.0722 43.6001C90.9829 43.6224 90.916 43.6894 90.849 43.734C89.6439 44.5374 88.4164 45.3185 87.2113 46.1219C86.9435 46.3004 86.6534 46.5013 86.3633 46.6575C85.9169 46.903 85.4036 47.0369 84.8903 47.0369C79.735 47.0369 74.5574 47.0369 69.4021 47.0369C69.1343 47.0369 68.8888 47.0592 68.621 46.9923C68.0631 46.903 67.5497 46.5013 67.3489 45.9657C67.2373 45.6756 67.1927 45.3631 67.1927 45.073C67.1927 38.4672 67.1927 31.8838 67.1927 25.3003C67.1927 25.1887 67.148 25.0102 67.0141 25.0102C66.8356 25.0325 66.7017 25.1441 66.5678 25.2334C66.4116 25.3226 66.2553 25.4119 66.0991 25.5012C66.0991 25.5235 66.0991 25.5458 66.1214 25.5458C66.1214 25.5235 66.0991 25.5235 66.0991 25.5012C62.1713 27.9114 58.2211 30.2993 54.2709 32.6872C54.2263 32.7541 54.1817 32.7764 54.1147 32.7541C54.0255 32.8434 53.9139 32.888 53.8246 32.955C52.8873 33.5352 51.9499 34.0932 51.0126 34.6734C50.9233 34.7403 50.8341 34.8296 50.8564 34.9412C50.9233 35.0974 51.0572 35.1866 51.1688 35.2982C51.6821 35.8115 52.1731 36.3248 52.6864 36.8381C53.1997 37.3737 53.7576 37.887 54.2709 38.4449C55.7439 39.9401 57.2168 41.4131 58.6898 42.9083C59.5825 43.8233 60.4752 44.7159 61.3679 45.6309C61.658 45.9434 61.9704 46.2335 62.2605 46.5459C62.3721 46.6575 62.506 46.7914 62.4837 46.9699C62.3721 47.0815 62.2159 47.1039 62.0597 47.1039C60.2743 47.1039 58.4666 47.1039 56.6812 47.1039C54.9851 47.1039 53.289 47.1039 51.6152 47.1039C51.5928 47.1708 51.5705 47.1485 51.5482 47.1039C51.1688 47.0815 50.7671 46.9922 50.4324 46.7914C50.2315 46.6798 50.0753 46.479 49.8967 46.3228C48.4015 44.8052 46.9285 43.31 45.4333 41.8148C44.8977 41.2569 44.3174 40.7213 43.7818 40.141C43.5809 39.9625 43.4024 39.7393 43.2015 39.5608C43.1792 39.5608 43.1123 39.5608 43.0676 39.5608C42.9337 39.6054 42.7998 39.6947 42.6659 39.7839C39.0282 41.9933 35.3682 44.225 31.7304 46.4344C31.4626 46.5906 31.1948 46.7691 30.9047 46.8807C30.5476 47.0369 30.1459 47.1039 29.7442 47.1039C26.2627 47.1039 22.8035 47.1039 19.322 47.1039C18.9872 47.1039 18.6302 47.0592 18.3177 46.903C18.0946 46.7691 17.8714 46.6129 17.7152 46.412C17.4697 46.0773 17.3581 45.6309 17.3581 45.2292C17.3581 40.565 17.3581 35.8785 17.3581 31.2143C17.3804 30.6117 17.492 30.0092 17.7821 29.4736C18.0722 28.9603 18.5409 28.5586 19.0319 28.2238C21.9331 26.4608 24.8344 24.6977 27.7133 22.9347C27.8472 22.8008 27.9811 22.6446 28.1597 22.6669Z" fill="black"/>
</svg>
