<svg width="16" height="17" viewBox="0 0 16 17" fill="none" xmlns="http://www.w3.org/2000/svg">
<path d="M8 1.625C6.54182 1.62665 5.14383 2.20665 4.11274 3.23774C3.08165 4.26883 2.50165 5.66682 2.5 7.125C2.5 11.8313 7.5 15.3856 7.71313 15.5344C7.7972 15.5933 7.89735 15.6249 8 15.6249C8.10265 15.6249 8.2028 15.5933 8.28687 15.5344C8.5 15.3856 13.5 11.8313 13.5 7.125C13.4983 5.66682 12.9184 4.26883 11.8873 3.23774C10.8562 2.20665 9.45818 1.62665 8 1.625ZM8 5.125C8.39556 5.125 8.78224 5.2423 9.11114 5.46206C9.44004 5.68182 9.69638 5.99418 9.84776 6.35963C9.99913 6.72509 10.0387 7.12722 9.96157 7.51518C9.8844 7.90314 9.69392 8.25951 9.41421 8.53921C9.13451 8.81892 8.77814 9.0094 8.39018 9.08657C8.00222 9.16374 7.60009 9.12413 7.23463 8.97276C6.86918 8.82138 6.55682 8.56504 6.33706 8.23614C6.1173 7.90724 6 7.52056 6 7.125C6 6.59457 6.21071 6.08586 6.58579 5.71079C6.96086 5.33571 7.46957 5.125 8 5.125Z" fill="#D60000"/>
</svg>
