<svg width="14" height="11" viewBox="0 0 14 11" fill="none" xmlns="http://www.w3.org/2000/svg">
<path d="M12.333 2.66667L6.99967 6L1.66634 2.66667V1.33333L6.99967 4.66667L12.333 1.33333M12.333 0H1.66634C0.926341 0 0.333008 0.593333 0.333008 1.33333V9.33333C0.333008 9.68696 0.473484 10.0261 0.723532 10.2761C0.97358 10.5262 1.31272 10.6667 1.66634 10.6667H12.333C12.6866 10.6667 13.0258 10.5262 13.2758 10.2761C13.5259 10.0261 13.6663 9.68696 13.6663 9.33333V1.33333C13.6663 0.979711 13.5259 0.640573 13.2758 0.390524C13.0258 0.140476 12.6866 0 12.333 0Z" fill="#D60000"/>
</svg>
