<svg width="16" height="16" viewBox="0 0 16 16" fill="none" xmlns="http://www.w3.org/2000/svg">
<path d="M7.67529 11.0375L10.6753 8.08049L7.67529 5.12349L6.62529 6.15844L7.82529 7.34124H4.67529V8.81974H7.82529L6.62529 10.0025L7.67529 11.0375ZM7.67529 15.473C6.63779 15.473 5.66279 15.2788 4.75029 14.8905C3.83779 14.5021 3.04404 13.9755 2.36904 13.3107C1.69404 12.6454 1.15979 11.863 0.766293 10.9636C0.372793 10.0641 0.175793 9.10312 0.175293 8.08049C0.175293 7.05786 0.372293 6.09683 0.766293 5.19741C1.16029 4.29799 1.69454 3.51562 2.36904 2.85029C3.04404 2.18497 3.83779 1.65838 4.75029 1.27052C5.66279 0.882658 6.63779 0.688481 7.67529 0.687988C8.71279 0.687988 9.68779 0.882165 10.6003 1.27052C11.5128 1.65887 12.3065 2.18546 12.9815 2.85029C13.6565 3.51562 14.191 4.29799 14.585 5.19741C14.979 6.09683 15.1758 7.05786 15.1753 8.08049C15.1753 9.10312 14.9783 10.0641 14.5843 10.9636C14.1903 11.863 13.656 12.6454 12.9815 13.3107C12.3065 13.976 11.5128 14.5028 10.6003 14.8912C9.68779 15.2795 8.71279 15.4735 7.67529 15.473ZM7.67529 13.9945C9.35029 13.9945 10.769 13.4216 11.9315 12.2757C13.094 11.1299 13.6753 9.73148 13.6753 8.08049C13.6753 6.4295 13.094 5.03108 11.9315 3.88524C10.769 2.73941 9.35029 2.16649 7.67529 2.16649C6.00029 2.16649 4.58154 2.73941 3.41904 3.88524C2.25654 5.03108 1.67529 6.4295 1.67529 8.08049C1.67529 9.73148 2.25654 11.1299 3.41904 12.2757C4.58154 13.4216 6.00029 13.9945 7.67529 13.9945Z" fill="white"/>
</svg>
