<svg width="16" height="15" viewBox="0 0 16 15" fill="none" xmlns="http://www.w3.org/2000/svg">
<path d="M8.33594 10.3915L11.3359 7.43449L8.33594 4.47749L7.28594 5.51244L8.48594 6.69524H5.33594V8.17374H8.48594L7.28594 9.35654L8.33594 10.3915ZM8.33594 14.827C7.29844 14.827 6.32344 14.6328 5.41094 14.2445C4.49844 13.8561 3.70469 13.3295 3.02969 12.6647C2.35469 11.9994 1.82044 11.217 1.42694 10.3176C1.03344 9.41815 0.836437 8.45712 0.835938 7.43449C0.835938 6.41186 1.03294 5.45084 1.42694 4.55142C1.82094 3.652 2.35519 2.86962 3.02969 2.2043C3.70469 1.53897 4.49844 1.01238 5.41094 0.624521C6.32344 0.236661 7.29844 0.042485 8.33594 0.0419922C9.37344 0.0419922 10.3484 0.236169 11.2609 0.624521C12.1734 1.01287 12.9672 1.53947 13.6422 2.2043C14.3172 2.86962 14.8517 3.652 15.2457 4.55142C15.6397 5.45084 15.8364 6.41186 15.8359 7.43449C15.8359 8.45712 15.6389 9.41815 15.2449 10.3176C14.8509 11.217 14.3167 11.9994 13.6422 12.6647C12.9672 13.33 12.1734 13.8568 11.2609 14.2452C10.3484 14.6336 9.37344 14.8275 8.33594 14.827ZM8.33594 13.3485C10.0109 13.3485 11.4297 12.7756 12.5922 11.6297C13.7547 10.4839 14.3359 9.08548 14.3359 7.43449C14.3359 5.7835 13.7547 4.38509 12.5922 3.23925C11.4297 2.09341 10.0109 1.52049 8.33594 1.52049C6.66094 1.52049 5.24219 2.09341 4.07969 3.23925C2.91719 4.38509 2.33594 5.7835 2.33594 7.43449C2.33594 9.08548 2.91719 10.4839 4.07969 11.6297C5.24219 12.7756 6.66094 13.3485 8.33594 13.3485Z" fill="#D60000"/>
</svg>
