<svg width="119" height="61" viewBox="0 0 119 61" fill="none" xmlns="http://www.w3.org/2000/svg">
<path fill-rule="evenodd" clip-rule="evenodd" d="M71.5521 37.1034C72.4234 41.706 69.9963 45.5624 68.0049 49.2943C65.7646 52.7774 62.093 55.7629 57.6123 55.3275C47.6553 55.2031 37.885 53.6481 28.7992 50.9113C28.3636 50.7869 27.9902 50.5382 27.7413 50.165C27.5546 49.6674 27.8035 49.1699 28.1769 48.7967C36.4537 42.0793 46.2862 39.0315 55.9943 35.735C59.6037 34.6777 63.462 33.558 67.5693 34.1178C69.2495 34.3666 70.9298 35.4862 71.5521 37.1034ZM105.593 17.2622C110.198 21.0563 114.429 26.2808 112.998 32.5629C110.696 41.8304 100.614 46.7442 92.5241 49.9163C88.1679 51.3468 83.7495 52.8396 78.9577 53.3372C78.6465 53.275 78.1486 53.3994 78.0864 52.9018L78.2109 52.4042C84.9941 44.7538 90.1593 36.1704 94.7022 27.4626C96.818 23.5441 98.7472 19.5013 100.552 15.5206C100.801 15.2096 101.05 15.0853 101.361 14.9609C103.041 15.0853 104.224 16.3914 105.593 17.2622ZM40.3743 7.43482L40.2498 7.99455C30.4173 19.1902 23.9452 32.1275 17.8465 45.0025C16.6642 46.1221 15.4818 44.6294 14.4238 44.1318C8.94747 40.5243 4.03119 34.7398 5.46251 27.898C7.76506 18.9414 16.9753 14.1523 24.692 10.918C29.2349 9.17644 34.0267 7.80795 39.0052 7.06157C39.4408 6.99938 40.0631 6.93724 40.3743 7.43482ZM89.1636 9.23851C89.7236 9.5495 90.4082 9.67396 90.7194 10.2337C91.0305 10.8557 90.4082 11.2911 90.097 11.6643C82.3804 17.6976 73.4813 21.0562 64.4577 24.0417C59.8526 25.1613 55.2475 27.1516 50.0823 26.032C48.8999 25.7211 47.7798 24.9748 47.1575 23.793C45.9128 20.3099 47.5931 16.6402 49.0867 13.5303C51.0781 9.67399 54.563 5.13346 59.417 5.07126C69.8719 5.00906 79.7666 6.62619 89.1636 9.23851ZM102.045 9.4874C109.949 13.8413 118.972 21.4294 118.039 31.6299C116.981 41.0218 108.144 47.6149 100.303 51.5956C77.4019 62.5425 45.2283 62.8535 21.5182 53.3372C13.4903 50.0407 4.52906 44.3183 1.16857 35.6728C-1.38291 28.5822 1.72863 21.2429 7.01829 16.3292C18.0332 6.31529 32.0975 2.89435 46.5974 0.904008C62.2797 -1.02414 78.8332 0.655154 92.8974 5.50662C96.009 6.68838 99.1206 7.93244 102.045 9.4874Z" fill="black"/>
</svg>
