<svg width="16" height="16" viewBox="0 0 16 16" fill="none" xmlns="http://www.w3.org/2000/svg">
<path d="M8.33008 10.6849L11.3301 7.72795L8.33008 4.77095L7.28008 5.8059L8.48008 6.9887H5.33008V8.4672H8.48008L7.28008 9.65L8.33008 10.6849ZM8.33008 15.1204C7.29258 15.1204 6.31758 14.9263 5.40508 14.5379C4.49258 14.1496 3.69883 13.623 3.02383 12.9581C2.34883 12.2928 1.81458 11.5104 1.42108 10.611C1.02758 9.7116 0.830578 8.75058 0.830078 7.72795C0.830078 6.70532 1.02708 5.74429 1.42108 4.84487C1.81508 3.94545 2.34933 3.16308 3.02383 2.49776C3.69883 1.83243 4.49258 1.30584 5.40508 0.917978C6.31758 0.530118 7.29258 0.335942 8.33008 0.335449C9.36758 0.335449 10.3426 0.529626 11.2551 0.917978C12.1676 1.30633 12.9613 1.83292 13.6363 2.49776C14.3113 3.16308 14.8458 3.94545 15.2398 4.84487C15.6338 5.74429 15.8306 6.70532 15.8301 7.72795C15.8301 8.75058 15.6331 9.7116 15.2391 10.611C14.8451 11.5104 14.3108 12.2928 13.6363 12.9581C12.9613 13.6235 12.1676 14.1503 11.2551 14.5387C10.3426 14.927 9.36758 15.1209 8.33008 15.1204ZM8.33008 13.6419C10.0051 13.6419 11.4238 13.069 12.5863 11.9232C13.7488 10.7774 14.3301 9.37894 14.3301 7.72795C14.3301 6.07696 13.7488 4.67854 12.5863 3.53271C11.4238 2.38687 10.0051 1.81395 8.33008 1.81395C6.65508 1.81395 5.23633 2.38687 4.07383 3.53271C2.91133 4.67854 2.33008 6.07696 2.33008 7.72795C2.33008 9.37894 2.91133 10.7774 4.07383 11.9232C5.23633 13.069 6.65508 13.6419 8.33008 13.6419Z" fill="#D60000"/>
</svg>
