<svg width="108" height="91" viewBox="0 0 108 91" fill="none" xmlns="http://www.w3.org/2000/svg">
<path fill-rule="evenodd" clip-rule="evenodd" d="M45.1172 1.00207C47.5131 0.478015 49.9839 0.215979 52.4546 0.141113C53.5777 0.141113 54.7382 0.141113 55.8612 0.141113C57.2089 0.253412 58.594 0.290844 59.9417 0.515441C61.0273 0.665172 62.0755 0.8149 63.1237 1.0395C63.2735 1.07693 63.4232 1.11437 63.5729 1.1518C67.5037 2.01275 71.3221 3.39777 74.9159 5.2694C79.7076 7.7774 84.0501 11.1089 87.644 15.1516C90.4516 18.296 92.8101 21.8147 94.607 25.5954C95.0936 26.5686 95.5054 27.5793 96.2541 28.3654C97.1151 29.2264 98.3505 29.6007 99.5484 29.7504C101.27 29.9376 102.955 30.1622 104.677 30.3493C104.677 30.836 104.715 31.36 104.677 31.8467C100.597 31.8092 96.5536 31.8467 92.4731 31.8467C91.687 29.5258 90.6762 27.2424 89.4783 25.1088C88.9168 24.1355 88.3552 23.1623 87.7188 22.2639C86.5958 20.5045 85.2481 18.8949 83.863 17.3602C80.3815 13.6169 76.1887 10.5474 71.6216 8.33888C70.1616 7.66509 68.6642 7.02874 67.0919 6.50468C65.1078 5.79346 63.0488 5.34427 60.9899 4.93251C61.1396 4.85765 61.2894 4.8202 61.4766 4.78277C61.2519 4.74534 61.0648 4.78278 60.915 4.93251C57.9951 4.48332 55.0002 4.22128 52.0428 4.40844C42.4593 4.8202 33.0256 8.82551 26.0626 15.4511C25.2016 16.1623 24.4903 17.0233 23.7041 17.8094C22.918 18.7078 22.1319 19.6436 21.4206 20.6168C20.5596 21.8521 19.6611 23.0874 18.9498 24.3975C18.8375 24.5847 18.7627 24.8093 18.5755 24.959C17.3776 27.1676 16.3294 29.451 15.5058 31.8467C11.4253 31.8092 7.38227 31.8092 3.30181 31.8467C3.30181 31.36 3.26437 30.8734 3.30181 30.3493C5.06127 30.1247 6.85818 29.975 8.61764 29.713C9.44122 29.6007 10.2648 29.3761 10.9761 28.9643C11.7622 28.5151 12.2863 27.729 12.6607 26.943C13.1473 26.0071 13.5966 25.0339 14.0832 24.0606C15.2063 21.9644 16.4791 19.943 17.9016 18.034C19.9606 15.3388 22.2816 12.8308 24.9021 10.6972C30.5923 5.86833 37.5178 2.53682 44.8178 1.00207C44.9301 1.03951 45.0798 1.03951 45.1172 1.00207ZM0.157227 38.8466C1.35516 38.8466 2.55309 38.8466 3.75103 38.8466C5.5105 40.6808 7.34484 42.4775 9.14174 44.2743C9.44123 44.5738 9.74071 44.8732 10.0028 45.1727C10.3022 45.4347 10.6017 45.7716 10.9012 46.0711C11.2007 46.3706 11.5002 46.67 11.7622 46.9695C12.174 47.3438 12.5484 47.7556 12.9227 48.1673C12.9227 48.1673 12.9602 48.1299 12.9976 48.0925C12.9602 45.023 12.9976 41.9535 12.9602 38.8466C13.896 38.8466 14.7945 38.8466 15.7304 38.8466C15.7304 43.039 15.7304 47.1941 15.7304 51.3865C14.5699 51.3491 13.372 51.424 12.2115 51.3491C9.14174 48.2422 6.07203 45.1727 3.03976 42.0658C3.00232 42.0658 2.96489 42.1032 2.92745 42.1032C2.96489 45.1727 2.92745 48.2422 2.96489 51.3117C2.029 51.3865 1.09311 51.3117 0.194659 51.3491C0.157223 47.1941 0.157227 43.0016 0.157227 38.8466ZM21.8698 38.8466C22.7683 38.8466 23.7041 38.8466 24.6026 38.8466C24.6026 38.9963 24.64 39.1086 24.64 39.2583C24.6026 42.2904 24.64 45.285 24.6026 48.3171C24.6026 49.1031 24.5652 49.8518 24.64 50.6379C24.6026 50.8625 24.64 51.1245 24.64 51.3865C23.7041 51.3865 22.7683 51.424 21.8698 51.3865C21.9072 47.1566 21.8324 43.0016 21.8698 38.8466ZM32.3892 39.1086C32.9507 38.884 33.5497 38.8466 34.1487 38.8466C37.8173 38.8466 41.486 38.8466 45.1547 38.8466C45.1547 39.7075 45.1172 40.531 45.1547 41.392C41.3363 41.392 37.5553 41.392 33.7369 41.392C33.5122 41.5043 33.2876 41.654 33.063 41.8038C32.8758 42.1781 32.7261 42.6273 32.9507 43.0016C33.1753 43.6005 33.8866 43.6754 34.4107 43.6754C36.9563 43.6754 39.5019 43.6754 42.0475 43.6754C42.7588 43.638 43.4701 43.7503 44.0691 44.0872C45.1172 44.6112 45.6788 45.6968 45.9034 46.7823C46.0157 47.793 45.866 48.8785 45.267 49.7395C44.6306 50.7502 43.4327 51.3117 42.2347 51.2742C38.2666 51.3117 34.2984 51.2742 30.3302 51.2742C30.3302 50.4133 30.3302 49.5898 30.3302 48.7288C34.1112 48.7288 37.8922 48.7288 41.6732 48.7288C41.9352 48.7288 42.1598 48.6539 42.4219 48.6165C42.5342 48.5416 42.6091 48.4668 42.7214 48.3919C43.1332 47.9427 43.208 47.3064 42.946 46.7449C42.6465 46.2957 42.085 46.1834 41.5609 46.1834C38.9404 46.1834 36.3573 46.1834 33.7369 46.1834C32.801 46.1834 31.8276 45.9214 31.1912 45.285C30.7046 44.8732 30.3677 44.3117 30.1805 43.7503C29.8436 42.7021 29.9184 41.5417 30.48 40.5685C31.0041 39.9321 31.603 39.3706 32.3892 39.1086ZM51.7059 40.1567C52.4172 39.2583 53.6525 38.8466 54.7756 38.8466C58.5192 38.8466 62.2253 38.8466 65.9688 38.8466C65.9688 39.7075 65.9688 40.531 65.9688 41.392C62.3001 41.392 58.6315 41.392 54.9628 41.392C54.6633 41.3546 54.3264 41.4669 54.0643 41.654C53.5402 42.0284 53.5028 42.8519 53.952 43.3011C54.2141 43.638 54.7007 43.638 55.0751 43.6754C57.5458 43.7128 60.0166 43.6754 62.4873 43.6754C63.0488 43.6754 63.6104 43.638 64.1345 43.7877C64.9955 43.9374 65.6693 44.5363 66.156 45.2101C66.6052 45.9962 66.8673 46.8946 66.7924 47.793C66.7175 48.4294 66.5303 49.0283 66.2309 49.5523C65.6319 50.5256 64.5837 51.1619 63.4606 51.2368C62.1878 51.3117 60.8776 51.2368 59.6048 51.2742C56.7971 51.2742 53.9895 51.3117 51.1818 51.2368C51.2192 50.3759 51.1818 49.5523 51.1818 48.6914C55.0377 48.6914 58.8561 48.6914 62.7119 48.6914C63.1986 48.6914 63.6104 48.3919 63.835 48.0176C63.9847 47.6433 63.9847 47.2315 63.835 46.8572C63.5729 46.408 63.0863 46.146 62.5622 46.1834C59.9043 46.146 57.2089 46.1834 54.551 46.1834C53.4654 46.1834 52.3049 45.7716 51.631 44.8732C50.6203 43.6005 50.5828 41.4669 51.7059 40.1567ZM77.7984 38.8466C78.8092 38.8091 79.8199 38.8091 80.8307 38.8466C83.0394 42.4775 85.3604 46.0711 87.5691 49.7021C87.906 50.2261 88.2055 50.8251 88.6173 51.3117C87.4942 51.3865 86.3712 51.3491 85.2107 51.3491C84.7989 50.6005 84.2373 49.9267 83.863 49.1406C80.7933 49.0657 77.761 49.1406 74.6913 49.1031C74.2795 49.8518 73.7554 50.563 73.3436 51.3491C72.2205 51.3491 71.0975 51.3491 69.9744 51.3491C70.8729 49.8518 71.8087 48.4294 72.7072 46.932C72.8944 46.6326 73.0816 46.3331 73.2687 46.0337C73.4185 45.8465 73.5308 45.6219 73.6431 45.3973C73.6805 45.4722 73.718 45.5845 73.7554 45.6593L73.8303 45.3973C73.7928 45.3973 73.718 45.3973 73.6805 45.3973C74.8036 43.5257 76.0015 41.6915 77.1246 39.8198C77.3118 39.5578 77.4615 39.2958 77.6113 39.0337C77.6861 39.0337 77.761 38.9214 77.7984 38.8466ZM77.0497 45.3599C76.7877 45.8465 76.4133 46.2583 76.2261 46.7823C78.2851 46.7449 80.344 46.7823 82.403 46.7823C81.9538 45.8465 81.3174 45.023 80.7933 44.1246C80.2692 43.3385 79.8199 42.515 79.2959 41.7663C78.5471 42.9642 77.7984 44.162 77.0497 45.3599ZM92.286 38.8466C93.4839 38.8466 94.6818 38.8091 95.8798 38.8466C96.7033 39.6701 97.5269 40.4936 98.3505 41.3546C98.4628 41.4669 98.5751 41.5792 98.6874 41.6915C98.7623 41.7663 98.8372 41.8412 98.912 41.9161C99.1741 42.2155 99.511 42.515 99.7731 42.8144C100.073 43.1139 100.335 43.4134 100.634 43.7128C102.094 45.2101 103.591 46.67 105.051 48.1673C105.089 45.0604 105.089 41.9535 105.051 38.884C105.987 38.8466 106.923 38.884 107.859 38.8466C107.822 43.0016 107.859 47.1941 107.859 51.3491C106.699 51.3491 105.538 51.3491 104.378 51.3491C101.27 48.2048 98.1633 45.0604 95.0188 41.9161C95.0936 42.3278 95.0562 42.777 95.0562 43.1888C95.0562 45.8839 95.0562 48.6165 95.0562 51.3117C94.1203 51.3117 93.1844 51.3491 92.286 51.3117C92.3234 47.1566 92.2485 43.0016 92.286 38.8466ZM3.30181 58.3116C4.64948 58.3865 5.95972 58.2742 7.3074 58.349C9.81558 58.3116 12.3238 58.3116 14.8319 58.349C15.0565 58.349 15.2812 58.3116 15.5432 58.3116C17.2278 63.2901 19.8857 67.8944 23.3298 71.8623C23.8165 72.4237 24.3031 72.9478 24.7898 73.4719C28.421 77.1777 32.7261 80.2098 37.4804 82.306C39.8014 83.3541 42.2347 84.1402 44.7429 84.7391C53.3156 86.7605 62.5247 85.8995 70.5734 82.306C77.9482 79.0493 84.3496 73.5467 88.5798 66.6591C90.1896 64.0762 91.4998 61.3062 92.4731 58.3865C96.5536 58.349 100.634 58.3865 104.715 58.3865C104.715 58.8731 104.715 59.3223 104.715 59.8089C103.554 59.9586 102.394 60.0709 101.233 60.2207C99.9228 60.3704 98.5751 60.4078 97.3772 61.0068C96.2541 61.5308 95.5428 62.6538 95.0562 63.7393C93.8582 66.3222 92.4731 68.7928 90.826 71.1136C89.366 73.1724 87.7188 75.1189 85.9219 76.9157C85.9219 76.9531 85.9219 77.0654 85.9219 77.1403C85.9219 77.1028 85.8845 76.9905 85.8845 76.9531C81.3922 81.445 75.9267 84.9263 70.0118 87.2097C65.3324 88.9316 60.3909 89.9797 55.412 90.1294C53.0536 90.1669 50.6951 90.1294 48.3367 89.7925C37.3307 88.445 26.8862 82.83 19.6985 74.4077C17.6396 72.012 15.8801 69.3917 14.3453 66.6217C13.7463 65.4987 13.1848 64.3008 12.6232 63.1404C12.174 62.2795 11.5376 61.5308 10.6766 61.0816C9.6284 60.5576 8.43047 60.4827 7.3074 60.333C5.95972 60.2207 4.61205 59.9961 3.30181 59.8838C3.30181 59.3223 3.30181 58.7982 3.30181 58.3116Z" fill="#221716"/>
</svg>
