<svg width="13" height="13" viewBox="0 0 13 13" fill="none" xmlns="http://www.w3.org/2000/svg">
<path d="M10.8333 6.5C10.6889 6.5 10.5603 6.448 10.4477 6.344C10.3346 6.24036 10.2691 6.11181 10.251 5.95833C10.1337 5.11875 9.77943 4.40321 9.18829 3.81171C8.59679 3.22057 7.88125 2.86632 7.04167 2.74896C6.88819 2.7309 6.75964 2.66771 6.656 2.55937C6.552 2.45104 6.5 2.32014 6.5 2.16667C6.5 2.01319 6.55417 1.88446 6.6625 1.78046C6.77083 1.67682 6.89722 1.63403 7.04167 1.65208C8.17917 1.77847 9.14965 2.2434 9.95312 3.04688C10.7566 3.85035 11.2215 4.82083 11.3479 5.95833C11.366 6.10278 11.323 6.22917 11.219 6.3375C11.1154 6.44583 10.9868 6.5 10.8333 6.5ZM8.57188 6.5C8.45451 6.5 8.35069 6.45937 8.26042 6.37813C8.17014 6.29688 8.10243 6.18854 8.05729 6.05313C7.98507 5.79132 7.84749 5.55876 7.64454 5.35546C7.44124 5.15251 7.20868 5.01493 6.94688 4.94271C6.81146 4.89757 6.70313 4.82986 6.62188 4.73958C6.54063 4.64931 6.5 4.54097 6.5 4.41458C6.5 4.23403 6.56319 4.08724 6.68958 3.97421C6.81597 3.86154 6.9559 3.82326 7.10938 3.85938C7.61493 3.97674 8.05061 4.21814 8.41642 4.58358C8.78186 4.94939 9.02326 5.38507 9.14063 5.89062C9.17674 6.0441 9.13611 6.18403 9.01875 6.31042C8.90139 6.43681 8.75243 6.5 8.57188 6.5ZM10.8063 11.375C9.64167 11.375 8.50651 11.1154 7.40079 10.5961C6.29471 10.0772 5.31519 9.39106 4.46225 8.53775C3.60894 7.68481 2.92283 6.70529 2.40392 5.59921C1.88464 4.49349 1.625 3.35833 1.625 2.19375C1.625 2.03125 1.67917 1.89583 1.7875 1.7875C1.89583 1.67917 2.03125 1.625 2.19375 1.625H4.3875C4.51389 1.625 4.62674 1.66562 4.72604 1.74687C4.82535 1.82812 4.88403 1.93194 4.90208 2.05833L5.25417 3.95417C5.27222 4.08056 5.27006 4.19557 5.24767 4.29921C5.22492 4.40321 5.17292 4.49583 5.09167 4.57708L3.79167 5.90417C4.17083 6.55417 4.64479 7.16354 5.21354 7.73229C5.78229 8.30104 6.40972 8.79306 7.09583 9.20833L8.36875 7.93542C8.45 7.85417 8.55617 7.79314 8.68725 7.75233C8.81797 7.71189 8.94653 7.70069 9.07292 7.71875L10.9417 8.09792C11.0681 8.125 11.1719 8.18585 11.2531 8.28046C11.3344 8.37543 11.375 8.48611 11.375 8.6125V10.8063C11.375 10.9688 11.3208 11.1042 11.2125 11.2125C11.1042 11.3208 10.9688 11.375 10.8063 11.375Z" fill="#D60000"/>
</svg>
