<svg width="13" height="13" viewBox="0 0 13 13" fill="none" xmlns="http://www.w3.org/2000/svg">
<path d="M9.75 3.25C10.8713 4.355 11.2938 5.89875 11.0283 7.33958C11.2504 7.72958 11.375 8.18458 11.375 8.66667C11.375 9.38496 11.0897 10.0738 10.5817 10.5817C10.0738 11.0897 9.38496 11.375 8.66667 11.375C8.18458 11.375 7.72958 11.2504 7.33958 11.0283C5.89875 11.2938 4.355 10.8713 3.25 9.75C2.12875 8.645 1.70625 7.10125 1.97167 5.66042C1.74958 5.27042 1.625 4.81542 1.625 4.33333C1.625 3.61504 1.91034 2.92616 2.41825 2.41825C2.92616 1.91034 3.61504 1.625 4.33333 1.625C4.81542 1.625 5.27042 1.74958 5.66042 1.97167C7.10125 1.70625 8.645 2.12875 9.75 3.25ZM6.52167 9.295C8.07625 9.295 8.85083 8.5475 8.85083 7.54C8.85083 6.89542 8.5475 6.2075 7.37208 5.94208L6.29417 5.70375C5.8825 5.61167 5.41667 5.48708 5.41667 5.1025C5.41667 4.7125 5.74167 4.44167 6.3375 4.44167C7.54542 4.44167 7.43167 5.27042 8.03292 5.27042C8.34708 5.27042 8.61792 5.08625 8.61792 4.76667C8.61792 4.02458 7.43167 3.46667 6.42417 3.46667C5.33542 3.46667 4.17083 3.9325 4.17083 5.1675C4.17083 5.76333 4.38208 6.39708 5.55208 6.68958L7.00917 7.05792C7.44792 7.16625 7.55625 7.41 7.55625 7.6375C7.55625 8.00583 7.18792 8.36875 6.52167 8.36875C5.21625 8.36875 5.395 7.36667 4.69625 7.36667C4.38208 7.36667 4.15458 7.58333 4.15458 7.89208C4.15458 8.49333 4.875 9.295 6.52167 9.295Z" fill="#D60000"/>
</svg>
