<svg width="14" height="14" viewBox="0 0 14 14" fill="none" xmlns="http://www.w3.org/2000/svg">
<path d="M9.04834 0.667358H4.95767C1.22167 0.667358 0.333008 1.55603 0.333008 5.28536V9.37602C0.333008 13.1114 1.21501 14.0007 4.95101 14.0007H9.04167C12.777 14.0007 13.6663 13.1187 13.6663 9.38269V5.29203C13.6663 1.55603 12.7843 0.667358 9.04834 0.667358ZM11.097 10.1807H10.1243C9.75634 10.1807 9.64567 9.88269 8.98567 9.22269C8.40967 8.66736 8.16634 8.59802 8.02034 8.59802C7.81901 8.59802 7.76367 8.65336 7.76367 8.93136V9.80602C7.76367 10.0427 7.68701 10.1814 7.06901 10.1814C6.46924 10.1411 5.88762 9.95883 5.37207 9.64971C4.85652 9.34059 4.42179 8.91341 4.10367 8.40336C3.34845 7.46336 2.82297 6.36011 2.56901 5.18136C2.56901 5.03536 2.62434 4.90336 2.90234 4.90336H3.87434C4.12434 4.90336 4.21434 5.01469 4.31234 5.27136C4.78434 6.66069 5.58967 7.86869 5.91634 7.86869C6.04167 7.86869 6.09634 7.81336 6.09634 7.50069V6.07002C6.05501 5.41736 5.70834 5.36202 5.70834 5.12602C5.71279 5.06378 5.74132 5.00571 5.78787 4.96414C5.83441 4.92258 5.89532 4.90077 5.95767 4.90336H7.48567C7.69434 4.90336 7.76367 5.00736 7.76367 5.25736V7.18802C7.76367 7.39669 7.85367 7.46602 7.91634 7.46602C8.04167 7.46602 8.13834 7.39669 8.36767 7.16736C8.86025 6.56666 9.2627 5.89741 9.56234 5.18069C9.59297 5.0946 9.65092 5.02089 9.72736 4.97082C9.80379 4.92075 9.89451 4.89705 9.98567 4.90336H10.9583C11.2497 4.90336 11.3117 5.04936 11.2497 5.25736C10.896 6.04964 10.4584 6.80172 9.94434 7.50069C9.83967 7.66069 9.79767 7.74402 9.94434 7.93136C10.041 8.07736 10.3817 8.36202 10.611 8.63269C10.9443 8.96512 11.221 9.34974 11.4303 9.77136C11.5137 10.042 11.3743 10.1807 11.097 10.1807Z" fill="#D60000"/>
</svg>
