<svg width="91" height="91" viewBox="0 0 91 91" fill="none" xmlns="http://www.w3.org/2000/svg">
<path d="M45.5972 86.0011C23.1872 86.0011 4.82717 67.5511 4.82717 45.1411C4.82717 40.1011 5.72717 35.3311 7.43717 30.8311L31.2872 78.8011C31.5572 79.4311 32.0072 79.9711 32.7272 79.9711C33.4472 79.9711 33.8972 79.4311 34.1672 78.8011L45.1472 54.2311C45.2372 53.9611 45.4172 53.6911 45.6872 53.6911C45.9572 53.6911 46.0472 53.9611 46.2272 54.2311L57.2072 78.8011C57.4772 79.4311 57.9272 79.9711 58.6472 79.9711C59.3672 79.9711 59.8172 79.4311 60.0872 78.8011L83.9372 30.8311C85.6472 35.3311 86.5472 40.1011 86.5472 45.1411C86.3672 67.5511 68.0072 86.0011 45.5972 86.0011ZM45.5972 35.8711C45.3272 35.8711 45.2372 35.6011 45.0572 35.3311L32.2772 6.53111C36.4172 5.00111 40.9172 4.19111 45.5972 4.19111C50.2772 4.19111 54.7772 5.00111 58.9172 6.53111L46.1372 35.3311C45.9572 35.6911 45.8672 35.8711 45.5972 35.8711ZM32.5472 65.4811C32.2772 65.4811 32.1872 65.2111 32.0072 64.9411L11.3072 23.1811C14.9972 17.5111 19.9472 12.7411 25.9772 9.41111L40.9172 42.6211C41.0972 43.1611 41.5472 43.3411 41.9972 43.3411H49.1972C49.7372 43.3411 50.0972 43.2511 50.3672 42.6211L65.3072 9.41111C71.2472 12.7411 76.2872 17.5111 79.9772 23.1811L59.0972 64.9411C59.0072 65.2111 58.8272 65.4811 58.5572 65.4811C58.2872 65.4811 58.1972 65.2111 58.0172 64.9411L50.1872 47.1211C49.9172 46.4911 49.5572 46.4011 49.0172 46.4011H41.8172C41.2772 46.4011 40.9172 46.4911 40.6472 47.1211L33.0872 64.9411C32.9972 65.2111 32.8172 65.4811 32.5472 65.4811ZM45.5972 90.1411C70.5272 90.1411 90.5972 70.0711 90.5972 45.1411C90.5972 20.2111 70.5272 0.141113 45.5972 0.141113C20.6672 0.141113 0.597168 20.2111 0.597168 45.1411C0.597168 70.0711 20.6672 90.1411 45.5972 90.1411Z" fill="black"/>
</svg>
