<svg width="13" height="13" viewBox="0 0 13 13" fill="none" xmlns="http://www.w3.org/2000/svg">
<path d="M1.08518 11.9166L1.81752 9.22565C1.33496 8.39844 1.08144 7.45764 1.08302 6.49998C1.08302 3.50835 3.50806 1.08331 6.49968 1.08331C9.49131 1.08331 11.9163 3.50835 11.9163 6.49998C11.9163 9.4916 9.49131 11.9166 6.49968 11.9166C5.54244 11.9182 4.60204 11.6649 3.7751 11.1827L1.08518 11.9166ZM4.54481 3.95848C4.47486 3.96282 4.40651 3.98125 4.34385 4.01265C4.28509 4.04592 4.23145 4.08752 4.1846 4.13615C4.1196 4.19735 4.08277 4.25044 4.04322 4.3019C3.84303 4.56244 3.73535 4.88225 3.73718 5.21081C3.73827 5.47623 3.8076 5.7346 3.91593 5.97619C4.13747 6.46477 4.50202 6.98206 4.98356 7.46144C5.09947 7.57681 5.21268 7.69273 5.33456 7.80052C5.93223 8.32673 6.64444 8.70621 7.41456 8.90877L7.72277 8.9559C7.82297 8.96131 7.92318 8.95373 8.02393 8.94885C8.18169 8.94071 8.33572 8.898 8.47514 8.82373C8.54607 8.78719 8.6153 8.74743 8.6826 8.70456C8.6826 8.70456 8.70589 8.6894 8.75031 8.65581C8.82343 8.60165 8.86839 8.56319 8.92906 8.49981C8.97402 8.45323 9.01302 8.39852 9.04281 8.33623C9.08506 8.24794 9.12731 8.07948 9.14464 7.93919C9.15764 7.83194 9.15385 7.77344 9.15222 7.73715C9.15006 7.67919 9.10185 7.61906 9.04931 7.59361L8.73406 7.45223C8.73406 7.45223 8.26281 7.24694 7.97518 7.11585C7.94486 7.10264 7.91236 7.09511 7.87931 7.09365C7.84225 7.08984 7.8048 7.09401 7.76948 7.10588C7.73417 7.11774 7.7018 7.13703 7.67456 7.16244V7.16135C7.67185 7.16135 7.63556 7.19223 7.24393 7.66673C7.22145 7.69693 7.19049 7.71976 7.15499 7.7323C7.11949 7.74484 7.08106 7.74653 7.0446 7.73715C7.00931 7.72771 6.97473 7.71576 6.94114 7.7014C6.87397 7.67323 6.85068 7.6624 6.80464 7.64235L6.80193 7.64127C6.49205 7.50598 6.20514 7.32323 5.95152 7.09961C5.88327 7.04002 5.81989 6.97502 5.75489 6.91219C5.54179 6.70811 5.35607 6.47724 5.20239 6.22535L5.17043 6.1739C5.14748 6.13932 5.12892 6.10202 5.11518 6.06285C5.0946 5.98323 5.14822 5.91931 5.14822 5.91931C5.14822 5.91931 5.27985 5.77523 5.34106 5.69723C5.39202 5.6324 5.43957 5.56497 5.48351 5.49519C5.54743 5.39227 5.56747 5.28665 5.53389 5.20485C5.38222 4.83435 5.22514 4.46548 5.06372 4.09931C5.03177 4.02673 4.93697 3.97473 4.85085 3.96444C4.8216 3.96119 4.79235 3.95794 4.7631 3.95577C4.69036 3.95216 4.61746 3.95342 4.54481 3.95848Z" fill="#D60000"/>
</svg>
