<svg width="21" height="20" viewBox="0 0 21 20" fill="none" xmlns="http://www.w3.org/2000/svg">
<path d="M17.3027 2.91006C16.3859 1.98399 15.2939 1.24973 14.0904 0.750111C12.8868 0.250494 11.5959 -0.00448012 10.2927 5.95696e-05C4.83273 5.95696e-05 0.382735 4.45006 0.382735 9.91006C0.382735 11.6601 0.842734 13.3601 1.70273 14.8601L0.302734 20.0001L5.55273 18.6201C7.00273 19.4101 8.63273 19.8301 10.2927 19.8301C15.7527 19.8301 20.2027 15.3801 20.2027 9.92006C20.2027 7.27006 19.1727 4.78006 17.3027 2.91006ZM10.2927 18.1501C8.81273 18.1501 7.36273 17.7501 6.09273 17.0001L5.79273 16.8201L2.67273 17.6401L3.50273 14.6001L3.30273 14.2901C2.48048 12.977 2.04387 11.4593 2.04273 9.91006C2.04273 5.37006 5.74273 1.67006 10.2827 1.67006C12.4827 1.67006 14.5527 2.53006 16.1027 4.09006C16.8702 4.85402 17.4784 5.76272 17.8921 6.76348C18.3058 7.76425 18.5168 8.83717 18.5127 9.92006C18.5327 14.4601 14.8327 18.1501 10.2927 18.1501ZM14.8127 11.9901C14.5627 11.8701 13.3427 11.2701 13.1227 11.1801C12.8927 11.1001 12.7327 11.0601 12.5627 11.3001C12.3927 11.5501 11.9227 12.1101 11.7827 12.2701C11.6427 12.4401 11.4927 12.4601 11.2427 12.3301C10.9927 12.2101 10.1927 11.9401 9.25273 11.1001C8.51273 10.4401 8.02273 9.63006 7.87273 9.38006C7.73273 9.13006 7.85273 9.00006 7.98273 8.87006C8.09273 8.76006 8.23273 8.58006 8.35273 8.44006C8.47273 8.30006 8.52273 8.19006 8.60273 8.03006C8.68273 7.86006 8.64273 7.72006 8.58273 7.60006C8.52273 7.48006 8.02273 6.26006 7.82273 5.76006C7.62273 5.28006 7.41273 5.34006 7.26273 5.33006H6.78273C6.61273 5.33006 6.35273 5.39006 6.12273 5.64006C5.90273 5.89006 5.26273 6.49006 5.26273 7.71006C5.26273 8.93006 6.15273 10.1101 6.27273 10.2701C6.39273 10.4401 8.02273 12.9401 10.5027 14.0101C11.0927 14.2701 11.5527 14.4201 11.9127 14.5301C12.5027 14.7201 13.0427 14.6901 13.4727 14.6301C13.9527 14.5601 14.9427 14.0301 15.1427 13.4501C15.3527 12.8701 15.3527 12.3801 15.2827 12.2701C15.2127 12.1601 15.0627 12.1101 14.8127 11.9901Z" fill="black"/>
</svg>
