<svg width="296" height="103" viewBox="0 0 296 103" fill="none" xmlns="http://www.w3.org/2000/svg">
<path d="M188.905 14.6992C188.905 14.6992 171.7 0.93457 151.053 0.93457C130.406 0.93457 109.759 14.6992 113.2 42.2284C113.2 42.2284 85.6709 28.4638 75.3474 52.5519C75.3474 52.5519 58.1416 45.6696 47.8182 59.4342C47.8182 59.4342 13.4066 45.6696 3.08317 66.3165C-7.2403 86.9634 16.8478 97.2869 16.8478 97.2869C16.8478 97.2869 -0.357989 69.7576 23.7301 73.1988C47.8182 76.6399 40.9359 93.8457 75.3474 100.728C109.759 107.61 120.082 86.9634 120.082 86.9634C120.082 86.9634 133.847 104.169 151.053 100.728C168.259 97.2869 175.141 86.9634 175.141 86.9634C175.141 86.9634 185.464 100.728 206.111 97.2869C226.758 93.8457 233.64 80.0811 233.64 80.0811C233.64 80.0811 247.405 86.9634 264.611 86.9634C281.817 86.9634 295.581 80.0811 295.581 62.8753C295.581 62.8753 283.537 81.8017 269.773 71.4782C256.008 61.1548 256.008 54.2724 238.802 57.7136C238.802 57.7136 235.361 40.5078 221.596 40.5078C221.596 40.5078 218.155 6.0963 188.905 14.6992Z" fill="white"/>
<path d="M137.137 29.1064C142.507 12.9973 168.013 23.7367 159.958 43.8732C151.904 64.0096 128.269 58.1294 120.347 51.266C110.269 42.5307 106.242 15.6822 134.055 4.26208C161.868 -7.15801 189.51 15.6822 189.51 15.6822C189.51 15.6822 201.12 9.04566 212.445 19.4258C223.752 29.7871 221.067 40.5265 221.067 40.5265C221.067 40.5265 218.382 60.663 195.561 51.266C172.74 41.869 198.246 17.7053 204.958 33.8144" stroke="#919191" stroke-linecap="round" stroke-linejoin="round"/>
<path d="M221.596 40.5082C221.596 40.5082 234.491 39.1658 238.518 57.9787C238.518 57.9787 249.844 52.3821 261.642 64.5774C273.44 76.7727 282.837 78.1151 294.919 63.3484C294.919 63.3484 300.743 101.844 234.718 80.5731C234.718 80.5731 209.193 110.938 180.227 91.2369C175.954 88.3251 173.212 83.5227 173.344 78.3609C173.439 74.7874 174.838 71.0059 179.433 68.6992C190.172 63.3295 200.911 67.3568 202.254 78.0962C203.596 88.8356 184.802 88.8356 184.802 78.0962" stroke="#919191" stroke-linecap="round" stroke-linejoin="round"/>
<path d="M113.635 43.1932C113.635 43.1932 100.4 33.7395 86.2001 40.4705C86.2001 40.4705 77.3703 44.5356 74.6854 52.5902C74.6854 52.5902 58.5763 45.878 47.8369 59.3023C47.8369 59.3023 0.171246 42.3045 0.511579 79.0039C0.511579 79.0039 3.53677 91.5395 16.961 96.9092C16.961 96.9092 2.6103 73.0669 19.8539 72.8968C37.0975 72.7455 47.8558 92.4281 63.2843 97.3441C78.7127 102.279 105.58 107.649 120.347 87.4933C120.347 87.4933 121.689 75.4114 109.607 72.7266C97.5256 70.0417 90.8135 79.4387 94.8408 87.4933C98.8681 95.5479 109.607 92.863 109.607 86.1509" stroke="#919191" stroke-linecap="round" stroke-linejoin="round"/>
<path d="M175.765 87.6819C175.765 87.6819 161.3 101.409 146.212 101.182C131.105 100.936 120.366 87.5117 120.366 87.5117" stroke="white" stroke-linecap="round" stroke-linejoin="round"/>
<path d="M47.8373 59.3207C47.8373 59.3207 46.4949 67.3753 58.5768 68.7177C70.6586 70.0602 65.2889 56.6359 59.9192 57.9783C54.5495 59.3207 55.8919 63.348 57.2343 64.6904" stroke="#919191" stroke-linecap="round" stroke-linejoin="round"/>
</svg>
