<svg width="89" height="281" viewBox="0 0 89 281" fill="none" xmlns="http://www.w3.org/2000/svg">
<path d="M32.2411 33.4336L30.2611 29.0776L16.4011 29.0776L14.4571 33.4336H4.77313L17.1571 6.64959L29.8651 6.64959L42.5371 33.4336H32.2411ZM27.4531 22.8136L23.3131 13.6696L19.2451 22.8136H27.4531ZM29.448 62.4936C28.824 63.5496 28.212 64.4376 27.612 65.1576C27.012 65.8536 26.364 66.4416 25.668 66.9216C24.924 67.4256 24.06 67.8096 23.076 68.0736C22.092 68.3136 20.928 68.4336 19.584 68.4336H11.34V61.5216H16.164C16.716 61.5216 16.992 61.3056 16.992 60.8736V60.8376C16.992 60.5976 16.944 60.3816 16.848 60.1896C16.776 59.9736 16.632 59.7096 16.416 59.3976L5.29204 41.6496H16.164L24.012 54.6816L31.608 41.6496H42.048L29.448 62.4936ZM29.6615 103.434L18.6095 91.4816V103.434H8.92551L8.92551 76.6496H18.6095V87.0176L29.6255 76.6496H41.0375L28.0055 88.7456L41.9375 103.434H29.6615ZM33.5783 142.934V138.434H6.97434L6.97434 111.65H16.6943L16.6943 131.666H28.4663L28.4663 111.65H38.1503L38.1503 131.666H42.4703V142.934H33.5783ZM30.3492 173.434L30.3492 157.27L16.9932 173.434H7.27316L7.27316 146.65H16.9932L16.9932 162.814L30.3492 146.65H40.0332L40.0332 173.434H30.3492ZM24.457 181.182C28.825 181.182 32.437 181.914 35.293 183.378C37.597 184.578 39.301 186.294 40.405 188.526C41.269 190.278 41.701 192.246 41.701 194.43V195.51C41.701 197.694 41.269 199.662 40.405 201.414C39.301 203.67 37.597 205.41 35.293 206.634C32.461 208.146 28.849 208.902 24.457 208.902H22.837C18.469 208.902 14.869 208.146 12.037 206.634C9.70898 205.386 7.99298 203.646 6.88898 201.414C6.02498 199.662 5.59298 197.694 5.59298 195.51L5.59298 194.43C5.59298 192.246 6.03698 190.278 6.92498 188.526C8.02898 186.294 9.73298 184.578 12.037 183.378C14.845 181.914 18.445 181.182 22.837 181.182H24.457ZM31.549 194.718C31.549 193.038 31.081 191.67 30.145 190.614C28.825 189.174 26.653 188.454 23.629 188.454C20.581 188.454 18.421 189.174 17.149 190.614C16.213 191.67 15.745 193.038 15.745 194.718V195.114C15.745 196.818 16.225 198.21 17.185 199.29C18.505 200.778 20.665 201.522 23.665 201.522C26.665 201.522 28.825 200.778 30.145 199.29C31.081 198.21 31.549 196.818 31.549 195.114V194.718ZM7.1677 243.434L7.1677 216.65H16.8877V226.082H30.4597V216.65H40.1437V243.434H30.4597V233.282H16.8877L16.8877 243.434H7.1677ZM10.2783 259.678H20.2863C24.8943 259.678 28.1943 260.518 30.1863 262.198C31.8903 263.638 32.7423 265.846 32.7423 268.822V269.218C32.7423 272.026 31.8783 274.198 30.1503 275.734C28.0863 277.534 24.7863 278.434 20.2503 278.434H0.558321L0.558321 251.65H10.2783L10.2783 259.678ZM19.4583 271.666C20.4903 271.666 21.2703 271.438 21.7983 270.982C22.3263 270.526 22.5903 269.914 22.5903 269.146V268.894C22.5903 268.126 22.3263 267.538 21.7983 267.13C21.2703 266.698 20.4903 266.482 19.4583 266.482H10.2783V271.666H19.4583ZM46.7463 251.65V278.434H37.0263V251.65H46.7463Z" fill="#D60000"/>
<path d="M70.5761 6.18159C74.9441 6.18159 78.5561 6.91359 81.4121 8.37759C83.7162 9.57759 85.4201 11.2936 86.5241 13.5256C87.3881 15.2776 87.8201 17.2456 87.8201 19.4296V20.5096C87.8201 22.6936 87.3881 24.6616 86.5241 26.4136C85.4201 28.6696 83.7162 30.4096 81.4121 31.6336C78.5801 33.1456 74.9681 33.9016 70.5761 33.9016H68.9561C64.5881 33.9016 60.9881 33.1456 58.1561 31.6336C55.8281 30.3856 54.1121 28.6456 53.0081 26.4136C52.1441 24.6616 51.7121 22.6936 51.7121 20.5096V19.4296C51.7121 17.2456 52.1561 15.2776 53.0441 13.5256C54.1481 11.2936 55.8521 9.57759 58.1561 8.37759C60.9641 6.91359 64.5641 6.18159 68.9561 6.18159H70.5761ZM77.6681 19.7176C77.6681 18.0376 77.2001 16.6696 76.2641 15.6136C74.9441 14.1736 72.7721 13.4536 69.7481 13.4536C66.7001 13.4536 64.5401 14.1736 63.2681 15.6136C62.3321 16.6696 61.8641 18.0376 61.8641 19.7176V20.1136C61.8641 21.8176 62.3441 23.2096 63.3041 24.2896C64.6241 25.7776 66.7841 26.5216 69.7841 26.5216C72.7841 26.5216 74.9441 25.7776 76.2641 24.2896C77.2001 23.2096 77.6681 21.8176 77.6681 20.1136V19.7176ZM53.2869 68.4336L53.2869 41.6496H63.0069V51.0816L76.5789 51.0816V41.6496H86.2629V68.4336L76.5789 68.4336V58.2816L63.0069 58.2816V68.4336H53.2869ZM75.3999 83.4176H66.1479C66.1479 87.1616 66.0279 90.2216 65.7879 92.5976C65.5719 94.9496 65.1999 96.7976 64.6719 98.1416C63.9279 99.9656 62.8839 101.262 61.5399 102.03C59.9559 102.966 57.8559 103.434 55.2399 103.434H52.1799V95.8376H52.7559C53.5719 95.8376 54.2319 95.6696 54.7359 95.3336C55.2399 94.9736 55.6479 94.4576 55.9599 93.7856C56.1519 93.3296 56.3079 92.7776 56.4279 92.1296C56.5479 91.4576 56.6439 90.5216 56.7159 89.3216C56.8119 87.1376 56.8599 82.9136 56.8599 76.6496L85.1199 76.6496V103.434L75.3999 103.434V83.4176ZM78.3603 138.434L76.3803 134.078H62.5203L60.5763 138.434H50.8923L63.2763 111.65H75.9843L88.6563 138.434H78.3603ZM73.5723 127.814L69.4323 118.67L65.3643 127.814H73.5723ZM76.4683 173.434V157.27L63.1123 173.434H53.3923V146.65H63.1123V162.814L76.4683 146.65H86.1523V173.434H76.4683ZM69.5203 144.886C66.4483 144.886 64.2403 144.082 62.8963 142.474C61.9843 141.418 61.5283 140.062 61.5283 138.406V138.334H67.7203C67.7683 138.886 67.9243 139.318 68.1883 139.63C68.5243 140.134 69.1003 140.386 69.9163 140.386H69.9523C70.7203 140.386 71.2963 140.134 71.6803 139.63C71.9683 139.27 72.1123 138.838 72.1123 138.334H78.2323V138.406C78.2323 139.054 78.1003 139.75 77.8363 140.494C77.5963 141.214 77.2123 141.874 76.6843 142.474C75.2443 144.082 73.1083 144.886 70.2763 144.886H69.5203ZM53.2869 208.434V181.65H63.0069V191.082H76.5789V181.65H86.2629V208.434H76.5789V198.282H63.0069V208.434H53.2869Z" fill="#D60000"/>
</svg>
